<svg width="61" height="60" viewBox="0 0 61 60" fill="none" xmlns="http://www.w3.org/2000/svg">
<g clip-path="url(#clip0_506_82)">
<path d="M41.4322 22.5C41.4322 25.4837 40.2441 28.3452 38.1292 30.455C36.0143 32.5647 33.1459 33.75 30.155 33.75C27.1641 33.75 24.2957 32.5647 22.1808 30.455C20.0659 28.3452 18.8777 25.4837 18.8777 22.5C18.8777 19.5163 20.0659 16.6548 22.1808 14.545C24.2957 12.4353 27.1641 11.25 30.155 11.25C33.1459 11.25 36.0143 12.4353 38.1292 14.545C40.2441 16.6548 41.4322 19.5163 41.4322 22.5V22.5Z" fill="#161453"/>
<path fill-rule="evenodd" clip-rule="evenodd" d="M0.0823364 30C0.0823364 22.0435 3.2507 14.4129 8.89041 8.7868C14.5301 3.16071 22.1792 0 30.155 0C38.1307 0 45.7798 3.16071 51.4195 8.7868C57.0593 14.4129 60.2276 22.0435 60.2276 30C60.2276 37.9565 57.0593 45.5871 51.4195 51.2132C45.7798 56.8393 38.1307 60 30.155 60C22.1792 60 14.5301 56.8393 8.89041 51.2132C3.2507 45.5871 0.0823364 37.9565 0.0823364 30V30ZM30.155 3.75C25.1997 3.75026 20.3452 5.14636 16.1502 7.7776C11.9552 10.4088 8.5902 14.1683 6.44256 18.6232C4.29493 23.0782 3.45192 28.0475 4.01057 32.9593C4.56921 37.8712 6.5068 42.5258 9.60033 46.3875C12.2693 42.0975 18.1447 37.5 30.155 37.5C42.1652 37.5 48.0369 42.0937 50.7096 46.3875C53.8031 42.5258 55.7407 37.8712 56.2994 32.9593C56.858 28.0475 56.015 23.0782 53.8674 18.6232C51.7198 14.1683 48.3548 10.4088 44.1598 7.7776C39.9648 5.14636 35.1103 3.75026 30.155 3.75V3.75Z" fill="#161453"/>
</g>
<defs>
<clipPath id="clip0_506_82">
<rect width="60.1453" height="60" fill="white" transform="translate(0.0823364)"/>
</clipPath>
</defs>
</svg>
