<svg width="61" height="60" viewBox="0 0 61 60" fill="none" xmlns="http://www.w3.org/2000/svg">
<path d="M41.8499 11.25V11.332C41.2965 11.2852 40.743 11.25 40.1792 11.25H26.8136C25.0907 11.25 23.42 11.4961 21.8223 11.9531C21.8119 11.7188 21.8015 11.4844 21.8015 11.25C21.8015 5.03906 26.2915 0 31.8257 0C37.3599 0 41.8499 5.03906 41.8499 11.25ZM40.1792 15C40.5447 15 40.9101 15.0117 41.2651 15.0352C41.7037 15.0703 42.1423 15.1172 42.5808 15.1875C44.4186 12.7852 47.1544 11.25 50.2034 11.25H53.5448L51.5817 20.0508C53.2315 21.7852 54.5786 23.8945 55.4974 26.25H56.8862C58.7344 26.25 60.2276 27.9258 60.2276 30V41.25C60.2276 43.3242 58.7344 45 56.8862 45H53.5448C52.5946 46.418 51.4669 47.6836 50.2034 48.75V56.25C50.2034 58.3242 48.7102 60 46.862 60H43.5206C41.6724 60 40.1792 58.3242 40.1792 56.25V52.5H26.8136V56.25C26.8136 58.3242 25.3204 60 23.4722 60H20.1308C18.2825 60 16.7894 58.3242 16.7894 56.25V48.75C13.1451 45.6797 10.66 40.9805 10.1901 35.625H7.18282C3.25667 35.625 0.0823364 32.0625 0.0823364 27.6563C0.0823364 23.25 3.25667 19.6875 7.18282 19.6875H7.6005C8.98927 19.6875 10.1065 20.9414 10.1065 22.5C10.1065 24.0586 8.98927 25.3125 7.6005 25.3125H7.18282C6.03421 25.3125 5.09444 26.3672 5.09444 27.6563C5.09444 28.9453 6.03421 30 7.18282 30H10.4407C11.7042 22.9922 16.4657 17.4023 22.5846 15.6094C23.9316 15.2109 25.3517 15 26.8136 15H40.1792ZM46.862 30.9375C46.862 29.3789 45.7447 28.125 44.3559 28.125C42.9672 28.125 41.8499 29.3789 41.8499 30.9375C41.8499 32.4961 42.9672 33.75 44.3559 33.75C45.7447 33.75 46.862 32.4961 46.862 30.9375Z" fill="#161453"/>
</svg>
