<svg width="21" height="19" viewBox="0 0 21 19" fill="none" xmlns="http://www.w3.org/2000/svg">
<path d="M1.125 4.03125H12.1968C12.3584 4.48805 12.6577 4.88351 13.0534 5.16321C13.4491 5.4429 13.9217 5.59309 14.4062 5.59309C14.8908 5.59309 15.3634 5.4429 15.7591 5.16321C16.1548 4.88351 16.4541 4.48805 16.6157 4.03125H19.875C20.0822 4.03125 20.2809 3.94894 20.4274 3.80243C20.5739 3.65592 20.6562 3.4572 20.6562 3.25C20.6562 3.0428 20.5739 2.84409 20.4274 2.69758C20.2809 2.55106 20.0822 2.46875 19.875 2.46875H16.6157C16.4541 2.01196 16.1548 1.6165 15.7591 1.3368C15.3634 1.05711 14.8908 0.906921 14.4062 0.906921C13.9217 0.906921 13.4491 1.05711 13.0534 1.3368C12.6577 1.6165 12.3584 2.01196 12.1968 2.46875H1.125C0.9178 2.46875 0.719086 2.55106 0.572573 2.69758C0.42606 2.84409 0.34375 3.0428 0.34375 3.25C0.34375 3.4572 0.42606 3.65592 0.572573 3.80243C0.719086 3.94894 0.9178 4.03125 1.125 4.03125ZM19.875 14.9688H16.6157C16.4541 14.512 16.1548 14.1165 15.7591 13.8368C15.3634 13.5571 14.8908 13.4069 14.4062 13.4069C13.9217 13.4069 13.4491 13.5571 13.0534 13.8368C12.6577 14.1165 12.3584 14.512 12.1968 14.9688H1.125C0.9178 14.9688 0.719086 15.0511 0.572573 15.1976C0.42606 15.3441 0.34375 15.5428 0.34375 15.75C0.34375 15.9572 0.42606 16.1559 0.572573 16.3024C0.719086 16.4489 0.9178 16.5313 1.125 16.5313H12.1968C12.3584 16.988 12.6577 17.3835 13.0534 17.6632C13.4491 17.9429 13.9217 18.0931 14.4062 18.0931C14.8908 18.0931 15.3634 17.9429 15.7591 17.6632C16.1548 17.3835 16.4541 16.988 16.6157 16.5313H19.875C20.0822 16.5313 20.2809 16.4489 20.4274 16.3024C20.5739 16.1559 20.6562 15.9572 20.6562 15.75C20.6562 15.5428 20.5739 15.3441 20.4274 15.1976C20.2809 15.0511 20.0822 14.9688 19.875 14.9688ZM19.875 8.71875H8.80322C8.64157 8.26196 8.3423 7.8665 7.94663 7.5868C7.55095 7.30711 7.0783 7.15692 6.59375 7.15692C6.1092 7.15692 5.63655 7.30711 5.24087 7.5868C4.8452 7.8665 4.54593 8.26196 4.38428 8.71875H1.125C0.9178 8.71875 0.719086 8.80106 0.572573 8.94758C0.42606 9.09409 0.34375 9.2928 0.34375 9.5C0.34375 9.7072 0.42606 9.90592 0.572573 10.0524C0.719086 10.1989 0.9178 10.2813 1.125 10.2813H4.38428C4.54593 10.738 4.8452 11.1335 5.24087 11.4132C5.63655 11.6929 6.1092 11.8431 6.59375 11.8431C7.0783 11.8431 7.55095 11.6929 7.94663 11.4132C8.3423 11.1335 8.64157 10.738 8.80322 10.2813H19.875C20.0822 10.2813 20.2809 10.1989 20.4274 10.0524C20.5739 9.90592 20.6562 9.7072 20.6562 9.5C20.6562 9.2928 20.5739 9.09409 20.4274 8.94758C20.2809 8.80106 20.0822 8.71875 19.875 8.71875Z" fill="#6E5CFC"/>
</svg>
