<svg width="25" height="25" viewBox="0 0 25 25" fill="none" xmlns="http://www.w3.org/2000/svg">
<path fill-rule="evenodd" clip-rule="evenodd" d="M10.5 2.25C8.31196 2.25 6.21354 3.1192 4.66637 4.66637C3.11919 6.21355 2.25 8.31196 2.25 10.5C2.25 12.688 3.11919 14.7865 4.66637 16.3336C6.21354 17.8808 8.31196 18.75 10.5 18.75C12.688 18.75 14.7865 17.8808 16.3336 16.3336C17.8808 14.7865 18.75 12.688 18.75 10.5C18.75 8.31196 17.8808 6.21355 16.3336 4.66637C14.7865 3.1192 12.688 2.25 10.5 2.25ZM2.42392e-08 10.5C0.000141655 8.821 0.402918 7.16652 1.17454 5.67534C1.94617 4.18416 3.06414 2.89977 4.43468 1.9299C5.80522 0.960024 7.38836 0.332961 9.0513 0.101307C10.7142 -0.130347 12.4085 0.0401631 13.9919 0.598534C15.5753 1.15691 17.0018 2.08685 18.1516 3.31037C19.3014 4.53389 20.141 6.0153 20.6 7.63034C21.059 9.24537 21.124 10.9469 20.7896 12.5923C20.4552 14.2376 19.7311 15.7788 18.678 17.0865L23.67 22.08C23.7805 22.183 23.8692 22.3072 23.9307 22.4452C23.9922 22.5832 24.0252 22.7322 24.0279 22.8832C24.0306 23.0343 24.0028 23.1843 23.9462 23.3244C23.8896 23.4645 23.8054 23.5917 23.6986 23.6986C23.5917 23.8054 23.4645 23.8896 23.3244 23.9462C23.1843 24.0028 23.0343 24.0306 22.8832 24.0279C22.7322 24.0252 22.5832 23.9922 22.4452 23.9307C22.3072 23.8692 22.183 23.7805 22.08 23.67L17.0865 18.678C15.5438 19.9206 13.6811 20.7014 11.7135 20.9304C9.74591 21.1593 7.75368 20.827 5.96692 19.9718C4.18016 19.1166 2.67175 17.7734 1.61591 16.0974C0.560069 14.4214 -0.000134547 12.4809 2.42392e-08 10.5Z" fill="black"/>
</svg>
