<svg width="24" height="24" viewBox="0 0 24 24" fill="none" xmlns="http://www.w3.org/2000/svg">
<path fill-rule="evenodd" clip-rule="evenodd" d="M10.4877 2.24657C8.30226 2.24657 6.20629 3.11478 4.66092 4.66021C3.11555 6.20563 2.24737 8.30168 2.24737 10.4872C2.24737 12.6728 3.11555 14.7688 4.66092 16.3143C6.20629 17.8597 8.30226 18.7279 10.4877 18.7279C12.6732 18.7279 14.7692 17.8597 16.3146 16.3143C17.8599 14.7688 18.7281 12.6728 18.7281 10.4872C18.7281 8.30168 17.8599 6.20563 16.3146 4.66021C14.7692 3.11478 12.6732 2.24657 10.4877 2.24657ZM2.42109e-08 10.4872C0.00014149 8.81014 0.402448 7.15754 1.17317 5.66804C1.9439 4.17855 3.06056 2.8956 4.4295 1.92683C5.79844 0.958054 7.37973 0.331701 9.04073 0.100309C10.7017 -0.131083 12.394 0.0392337 13.9756 0.596973C15.5571 1.15471 16.9819 2.08361 18.1304 3.30575C19.2788 4.52788 20.1175 6.00762 20.5759 7.62082C21.0344 9.23403 21.0994 10.9337 20.7653 12.5772C20.4313 14.2206 19.708 15.7601 18.6562 17.0663L23.6424 22.0541C23.7528 22.157 23.8413 22.2811 23.9027 22.4189C23.9641 22.5568 23.9972 22.7056 23.9998 22.8565C24.0025 23.0073 23.9747 23.1572 23.9182 23.2971C23.8617 23.4371 23.7776 23.5642 23.6709 23.6709C23.5642 23.7776 23.4371 23.8617 23.2972 23.9182C23.1572 23.9747 23.0074 24.0025 22.8565 23.9998C22.7056 23.9972 22.5568 23.9641 22.419 23.9027C22.2811 23.8413 22.1571 23.7528 22.0542 23.6423L17.0665 18.656C15.5257 19.8972 13.6651 20.6771 11.6998 20.9058C9.73453 21.1345 7.74463 20.8025 5.95995 19.9483C4.17528 19.0941 2.66863 17.7524 1.61402 16.0783C0.559415 14.4042 -0.00013439 12.4659 2.42109e-08 10.4872Z" fill="black" fill-opacity="0.5"/>
</svg>
