<svg width="29" height="38" viewBox="0 0 29 38" fill="none" xmlns="http://www.w3.org/2000/svg">
<path d="M14.9259 19.8164C15.8884 19.8164 16.7127 19.4469 17.3987 18.7078C18.0847 17.9688 18.4271 17.0814 18.4259 16.0457C18.4259 15.0088 18.0829 14.1208 17.3969 13.3817C16.7109 12.6426 15.8872 12.2737 14.9259 12.275C13.9634 12.275 13.1392 12.6445 12.4532 13.3836C11.7672 14.1226 11.4247 15.01 11.4259 16.0457C11.4259 17.0826 11.7689 17.9706 12.4549 18.7097C13.1409 19.4488 13.9646 19.8177 14.9259 19.8164ZM14.9259 37.9629C14.6926 37.9629 14.4592 37.9158 14.2259 37.8215C13.9926 37.7272 13.7884 37.6015 13.6134 37.4444C9.35507 33.3909 6.1759 29.6278 4.0759 26.1549C1.9759 22.6821 0.925903 19.4381 0.925903 16.4228C0.925903 11.7094 2.33349 7.9544 5.14865 5.15779C7.96382 2.36119 11.2229 0.962891 14.9259 0.962891C18.6301 0.962891 21.8897 2.36119 24.7049 5.15779C27.5201 7.9544 28.9271 11.7094 28.9259 16.4228C28.9259 19.4393 27.8759 22.684 25.7759 26.1568C23.6759 29.6296 20.4967 33.3922 16.2384 37.4444C16.0634 37.6015 15.8592 37.7272 15.6259 37.8215C15.3926 37.9158 15.1592 37.9629 14.9259 37.9629Z" fill="#161453"/>
</svg>
