<svg width="19" height="25" viewBox="0 0 19 25" fill="none" xmlns="http://www.w3.org/2000/svg">
<path d="M9.5 12.7389C10.1531 12.7389 10.7124 12.4892 11.1779 11.9898C11.6434 11.4904 11.8758 10.8909 11.875 10.1911C11.875 9.49045 11.6423 8.89045 11.1767 8.39108C10.7112 7.89172 10.1523 7.64246 9.5 7.64331C8.84688 7.64331 8.28756 7.89299 7.82206 8.39236C7.35656 8.89172 7.12421 9.49129 7.125 10.1911C7.125 10.8917 7.35775 11.4917 7.82325 11.9911C8.28875 12.4904 8.84767 12.7397 9.5 12.7389ZM9.5 25C9.34167 25 9.18333 24.9682 9.025 24.9045C8.86667 24.8408 8.72812 24.7558 8.60938 24.6497C5.71979 21.9108 3.5625 19.3682 2.1375 17.0217C0.7125 14.6752 0 12.4832 0 10.4459C0 7.26115 0.955146 4.72399 2.86544 2.83439C4.77573 0.944798 6.98725 0 9.5 0C12.0135 0 14.2255 0.944798 16.1357 2.83439C18.046 4.72399 19.0008 7.26115 19 10.4459C19 12.4841 18.2875 14.6764 16.8625 17.0229C15.4375 19.3694 13.2802 21.9117 10.3906 24.6497C10.2719 24.7558 10.1333 24.8408 9.975 24.9045C9.81667 24.9682 9.65833 25 9.5 25Z" fill="#161453"/>
</svg>
