<svg width="25" height="19" viewBox="0 0 25 19" fill="none" xmlns="http://www.w3.org/2000/svg">
<path d="M22.5 0H2.5C1.125 0 0.0125 1.06875 0.0125 2.375L0 16.625C0 17.9312 1.125 19 2.5 19H22.5C23.875 19 25 17.9312 25 16.625V2.375C25 1.06875 23.875 0 22.5 0ZM22 5.04688L13.1625 10.2956C12.7625 10.5331 12.2375 10.5331 11.8375 10.2956L3 5.04688C2.87466 4.98003 2.7649 4.88972 2.67736 4.78141C2.58982 4.67311 2.52633 4.54905 2.49072 4.41675C2.45511 4.28446 2.44813 4.14667 2.4702 4.01174C2.49226 3.87681 2.54292 3.74753 2.6191 3.63173C2.69528 3.51594 2.79541 3.41603 2.91341 3.33806C3.03141 3.26008 3.16484 3.20567 3.30562 3.1781C3.4464 3.15054 3.5916 3.1504 3.73244 3.17769C3.87328 3.20498 4.00683 3.25913 4.125 3.33687L12.5 8.3125L20.875 3.33687C20.9932 3.25913 21.1267 3.20498 21.2676 3.17769C21.4084 3.1504 21.5536 3.15054 21.6944 3.1781C21.8352 3.20567 21.9686 3.26008 22.0866 3.33806C22.2046 3.41603 22.3047 3.51594 22.3809 3.63173C22.4571 3.74753 22.5077 3.87681 22.5298 4.01174C22.5519 4.14667 22.5449 4.28446 22.5093 4.41675C22.4737 4.54905 22.4102 4.67311 22.3226 4.78141C22.2351 4.88972 22.1253 4.98003 22 5.04688Z" fill="#6E5CFC"/>
</svg>
