<svg width="563" height="818" viewBox="0 0 563 818" fill="none" xmlns="http://www.w3.org/2000/svg">
<path d="M1 409.498L1.04182 404.377L1.16721 399.258L1.37619 394.142L1.66863 389.03L2.04445 383.925L2.50351 378.827L3.04562 373.739L3.67061 368.661L4.37825 363.597L5.16826 358.546L6.04036 353.511L6.99424 348.492L8.02954 343.493L9.14592 338.513L10.3429 333.555L11.6201 328.621L12.9771 323.711L14.4132 318.827L15.9281 313.97L17.5212 309.143L19.1919 304.346L20.9395 299.582L22.7635 294.85L24.6632 290.153L26.6378 285.493L28.6867 280.87L30.8091 276.286L33.0043 271.742L35.2714 267.24L37.6096 262.781L40.0181 258.366L42.496 253.996L45.0424 249.674L47.6563 245.399L50.3369 241.174L53.0832 237L55.894 232.877L58.7686 228.807L61.7056 224.791L64.7043 220.83L67.7633 216.926L70.8817 213.079L74.0583 209.291L77.292 205.562L80.5815 201.893L83.9257 198.287L87.3235 194.742L90.7734 191.262L94.2744 187.845L97.8252 184.494L101.424 181.209L105.071 177.991L108.763 174.841L112.5 171.76L116.28 168.748L120.102 165.807L123.964 162.936L127.866 160.137L131.805 157.41L135.78 154.756L139.79 152.176L143.834 149.669L147.91 147.238L152.016 144.881L156.151 142.601L160.314 140.396L164.503 138.268L168.716 136.217L172.953 134.243L177.211 132.347L181.49 130.529L185.787 128.789L190.101 127.128L194.43 125.545L198.774 124.042L203.13 122.617L207.498 121.272L211.874 120.007L216.259 118.821L220.65 117.714L225.045 116.687L229.444 115.739L233.845 114.871L238.246 114.082L242.646 113.372L247.043 112.742L251.436 112.19L255.822 111.718L260.202 111.323L264.572 111.007L268.933 110.77L273.281 110.609L277.616 110.526L281.936 110.52L286.24 110.591L290.526 110.737L294.792 110.959L299.038 111.257L303.262 111.629L307.463 112.075L311.638 112.594L315.788 113.186L319.909 113.851L324.001 114.587L328.063 115.394L332.094 116.272L336.091 117.218L340.053 118.234L343.98 119.317L347.87 120.467L351.722 121.684L355.534 122.966L359.306 124.312L363.035 125.722L366.722 127.195L370.364 128.729L373.96 130.324L377.511 131.978L381.013 133.692L384.467 135.462L387.87 137.289L391.224 139.172L394.525 141.109L397.773 143.099L400.967 145.141L404.107 147.234L407.191 149.377L410.218 151.568L413.187 153.806L416.099 156.09L418.951 158.419L421.743 160.791L424.474 163.206L427.144 165.661L429.752 168.156L432.296 170.689L434.777 173.259L437.194 175.864L439.546 178.504L441.833 181.176L444.053 183.879L446.207 186.613L448.294 189.375L450.314 192.164L452.265 194.979L454.148 197.818L455.963 200.68L457.708 203.563L459.384 206.466L460.99 209.388L462.527 212.327L463.993 215.28L465.388 218.248L466.713 221.229L467.968 224.22L469.151 227.221L470.264 230.23L471.305 233.246L472.276 236.267L473.175 239.291L474.004 242.318L474.761 245.345L475.448 248.371L476.064 251.394L476.609 254.414L477.085 257.429L477.49 260.437L477.825 263.437L478.09 266.426L478.286 269.405L478.413 272.371L478.472 275.324L478.462 278.26L478.384 281.18L478.239 284.081L478.027 286.963L477.749 289.824L477.405 292.662L476.995 295.476L476.521 298.266L475.983 301.028L475.381 303.763L474.716 306.468L473.99 309.143L473.202 311.787L472.353 314.397L471.444 316.973L470.476 319.513L469.451 322.017L468.367 324.482L467.227 326.908L466.032 329.294L464.781 331.639L463.477 333.941L462.121 336.199L460.712 338.412L459.252 340.579L457.743 342.7L456.185 344.772L454.579 346.795L452.927 348.769L451.229 350.691L449.487 352.562L447.702 354.379L445.874 356.143L444.006 357.853L442.098 359.507L440.152 361.105L438.169 362.645L436.149 364.128L434.095 365.553L432.008 366.918L429.888 368.223L427.738 369.467L425.558 370.651L423.35 371.772L421.116 372.831L418.855 373.827L416.571 374.76L414.265 375.629L411.936 376.433L409.589 377.172L407.222 377.846L404.838 378.454L402.439 378.996L400.026 379.471L397.6 379.88L395.162 380.222L392.715 380.497L390.259 380.704L387.796 380.844L385.328 380.916L382.856 380.921L380.381 380.857L377.904 380.726L375.429 380.526L372.955 380.258L370.484 379.923L368.018 379.519L365.558 379.048L363.106 378.509L360.663 377.903L358.231 377.229L355.81 376.488L353.403 375.68L351.011 374.806L348.636 373.865L346.278 372.859L343.939 371.786L341.621 370.649L339.325 369.446L337.052 368.18L334.805 366.849L332.583 365.455L330.389 363.998L328.224 362.479L326.089 360.898L323.986 359.257L321.916 357.554L319.879 355.792L317.879 353.971L315.915 352.092L313.99 350.155L312.103 348.161L310.258 346.111L308.454 344.006L306.693 341.847L304.976 339.634L303.305 337.369L301.68 335.052L300.103 332.684L298.574 330.267L297.096 327.801L295.668 325.287L294.292 322.727L292.97 320.121L291.701 317.47L290.487 314.776L289.329 312.04L288.229 309.263L287.186 306.446L286.201 303.59L285.276 300.696L284.412 297.766L283.609 294.801L282.868 291.802L282.19 288.77L281.575 285.707L281.025 282.614L280.54 279.493L280.12 276.343L279.767 273.168L279.481 269.968L279.262 266.745L279.111 263.5L279.029 260.234L279.016 256.949L279.073 253.647L279.199 250.328L279.396 246.994L279.664 243.647L280.003 240.287L280.414 236.917L280.897 233.539L281.451 230.152L282.078 226.76L282.778 223.362L283.55 219.962L284.395 216.56L285.314 213.158L286.305 209.757L287.37 206.359L288.508 202.965L289.719 199.577L291.004 196.197L292.361 192.825L293.792 189.464L295.295 186.114L296.872 182.778L298.521 179.457L300.242 176.152L302.036 172.864L303.902 169.597L305.839 166.35L307.848 163.125L309.927 159.924L312.078 156.748L314.298 153.598L316.588 150.477L318.947 147.385L321.375 144.325L323.871 141.296L326.435 138.301L329.066 135.342L331.764 132.419L334.527 129.534L337.355 126.688L340.248 123.883L343.204 121.12L346.224 118.4L349.306 115.725L352.449 113.096L355.652 110.514L358.916 107.98L362.238 105.496L365.618 103.063L369.055 100.681L372.548 98.3535L376.097 96.0801L379.699 93.8623L383.354 91.7011L387.061 89.5979L390.82 87.5535L394.628 85.5691L398.484 83.6458L402.389 81.7845L406.34 79.9863L410.336 78.2521L414.376 76.5829L418.459 74.9796L422.583 73.4432L426.748 71.9745L430.952 70.5744L435.194 69.2437L439.472 67.9832L443.786 66.7938L448.133 65.6761L452.513 64.6309L456.925 63.6588L461.365 62.7607L465.835 61.9371L470.331 61.1887L474.853 60.516L479.399 59.9196L483.967 59.4001L488.557 58.958L493.167 58.5936L497.795 58.3076L502.439 58.1003L507.1 57.9721L511.773 57.9234L516.46 57.9545L521.157 58.0658L525.863 58.2574L530.577 58.5297L535.298 58.8828L540.023 59.317L544.751 59.8324L549.481 60.429L554.211 61.1072L558.94 61.8668L563.666 62.7079L568.387 63.6305L573.102 64.6346L577.809 65.7202L582.507 66.8871L587.195 68.1352L591.87 69.4644L596.532 70.8745L601.178 72.3652L605.807 73.9364L610.418 75.5878L615.009 77.3191L619.578 79.1299L624.125 81.0198L628.647 82.9886L633.143 85.0357L637.612 87.1608L642.051 89.3632L646.461 91.6426L650.838 93.9984L655.183 96.43L659.492 98.9369L663.766 101.518L668.002 104.174L672.199 106.902L676.355 109.704L680.47 112.577L684.542 115.521L688.569 118.535L692.551 121.619L696.485 124.772L700.371 127.992L704.208 131.28L707.994 134.633L711.727 138.051L715.407 141.533L719.033 145.079L722.602 148.686L726.115 152.354L729.57 156.083L732.965 159.87L736.301 163.715L739.574 167.617L742.786 171.574L745.934 175.585L749.017 179.65L752.035 183.767L754.986 187.934L757.87 192.151L760.685 196.416L763.432 200.728L766.108 205.085L768.713 209.487L771.247 213.932L773.708 218.419L776.095 222.945L778.409 227.511L780.647 232.114L782.811 236.753L784.898 241.427L786.908 246.134L788.841 250.873L790.696 255.643L792.473 260.441L794.17 265.266L795.789 270.118L797.327 274.994L798.785 279.893L800.162 284.813L801.457 289.753L802.672 294.711L803.805 299.686L804.855 304.677L805.823 309.681L806.709 314.697L807.512 319.725L808.232 324.761L808.869 329.804L809.423 334.854L809.894 339.908L810.281 344.965L810.585 350.023L810.806 355.081L810.944 360.137L810.999 365.189L810.971 370.237L810.86 375.278L810.666 380.311L810.391 385.334L810.032 390.346L809.592 395.346L809.07 400.331L808.468 405.301L807.784 410.253L807.019 415.186L806.174 420.1L805.25 424.991L804.246 429.859L803.164 434.702L802.004 439.52L800.766 444.309L799.45 449.069L798.059 453.799L796.591 458.497L795.049 463.162L793.432 467.791L791.742 472.385L789.978 476.941L788.142 481.459L786.235 485.936L784.258 490.372L782.21 494.765L780.094 499.114L777.91 503.417L775.659 507.674L773.343 511.884L770.961 516.044L768.515 520.154L766.006 524.214L763.435 528.22L760.803 532.173L758.111 536.071L755.361 539.914L752.553 543.7L749.688 547.427L746.769 551.096L743.795 554.706L740.768 558.254L737.69 561.741L734.562 565.165L731.384 568.526L728.158 571.822L724.886 575.053L721.568 578.218L718.207 581.316L714.803 584.346L711.358 587.309L707.873 590.202L704.349 593.026L700.789 595.779L697.192 598.461L693.562 601.072L689.898 603.611L686.203 606.077L682.478 608.47L678.725 610.79L674.945 613.035L671.139 615.206L667.309 617.302L663.456 619.323L659.582 621.268L655.689 623.138L651.777 624.931L647.849 626.648L643.906 628.289L639.949 629.852L635.98 631.339L632 632.749L628.012 634.082L624.016 635.338L620.014 636.517L616.007 637.618L611.998 638.642L607.987 639.59L603.976 640.46L599.967 641.254L595.961 641.971L591.959 642.611L587.964 643.175L583.976 643.663L579.997 644.076L576.029 644.412L572.073 644.674L568.131 644.861L564.203 644.974L560.292 645.013L556.399 644.979L552.525 644.871L548.672 644.691L544.84 644.439L541.033 644.116L537.25 643.721L533.494 643.257L529.765 642.723L526.066 642.121L522.396 641.45L518.759 640.712L515.154 639.907L511.583 639.036L508.048 638.1L504.55 637.1L501.09 636.037L497.669 634.911L494.288 633.723L490.949 632.475L487.653 631.167L484.401 629.801L481.193 628.376L478.032 626.895L474.918 625.358L471.852 623.766L468.836 622.121L465.869 620.424L462.954 618.675L460.092 616.875L457.282 615.027L454.527 613.131L451.827 611.188L449.182 609.2L446.594 607.168L444.064 605.092L441.592 602.975L439.18 600.817L436.827 598.621L434.534 596.386L432.303 594.115L430.134 591.809L428.028 589.468L425.984 587.096L424.005 584.692L422.089 582.258L420.239 579.796L418.454 577.307L416.734 574.793L415.081 572.254L413.494 569.693L411.975 567.111L410.523 564.508L409.138 561.888L407.822 559.25L406.573 556.597L405.394 553.93L404.282 551.25L403.24 548.559L402.267 545.859L401.363 543.151L400.527 540.436L399.762 537.716L399.065 534.992L398.438 532.266L397.88 529.539L397.391 526.813L396.971 524.089L396.62 521.369L396.337 518.654L396.124 515.946L395.978 513.246L395.901 510.556L395.892 507.876L395.95 505.209L396.075 502.555L396.268 499.917L396.526 497.296L396.851 494.693L397.241 492.11L397.696 489.547L398.216 487.007L398.8 484.49L399.448 481.998L400.158 479.533L400.931 477.096L401.765 474.687L402.66 472.309L403.615 469.963L404.63 467.65L405.704 465.37L406.836 463.127L408.025 460.92L409.271 458.75L410.572 456.62L411.927 454.531L413.337 452.482L414.799 450.477L416.314 448.515L417.879 446.597L419.494 444.726L421.158 442.902L422.87 441.125L424.629 439.398L426.434 437.721L428.283 436.095L430.176 434.521L432.112 432.999L434.089 431.532L436.105 430.119L438.161 428.762L440.255 427.461L442.385 426.217L444.55 425.032L446.75 423.905L448.982 422.837L451.246 421.83L453.539 420.884L455.862 419.999L458.212 419.176L460.589 418.417L462.99 417.72L465.415 417.088L467.861 416.519L470.329 416.016L472.816 415.578L475.321 415.206L477.842 414.9L480.378 414.661L482.929 414.488L485.491 414.383L488.064 414.346L490.647 414.376L493.237 414.474L495.834 414.64L498.436 414.875L501.041 415.178L503.649 415.55L506.257 415.991L508.864 416.5L511.469 417.078L514.07 417.725L516.666 418.441L519.255 419.225L521.836 420.078L524.407 420.999L526.967 421.989L529.514 423.046L532.047 424.172L534.565 425.365L537.066 426.625L539.548 427.953L542.011 429.347L544.452 430.807L546.87 432.333L549.265 433.925L551.634 435.582L553.975 437.303L556.289 439.088L558.573 440.937L560.826 442.849L563.047 444.823L565.234 446.858L567.385 448.955L569.501 451.112L571.578 453.329L573.617 455.604L575.616 457.938L577.573 460.329L579.487 462.777L581.357 465.281L583.182 467.839L584.961 470.451L586.692 473.117L588.375 475.834L590.007 478.603L591.589 481.422L593.119 484.29L594.595 487.206L596.017 490.169L597.385 493.179L598.695 496.233L599.949 499.331L601.144 502.472L602.281 505.654L603.357 508.877L604.372 512.139L605.325 515.439L606.216 518.775L607.043 522.148L607.805 525.554L608.503 528.993L609.134 532.464L609.699 535.966L610.197 539.496L610.627 543.054L610.988 546.639L611.279 550.248L611.501 553.881L611.653 557.536L611.733 561.212L611.742 564.908L611.679 568.621L611.544 572.351L611.336 576.096L611.054 579.854L610.699 583.625L610.27 587.406L609.767 591.196L609.189 594.995L608.536 598.799L607.809 602.608L607.006 606.421L606.128 610.235L605.174 614.049L604.145 617.862L603.04 621.672L601.859 625.478L600.603 629.278L599.271 633.071L597.863 636.855L596.38 640.628L594.822 644.39L593.188 648.138L591.479 651.871L589.695 655.587L587.836 659.286L585.903 662.966L583.896 666.624L581.814 670.26L579.66 673.872L577.432 677.458L575.132 681.018L572.759 684.549L570.315 688.051L567.799 691.522L565.213 694.959L562.557 698.363L559.83 701.731L557.035 705.062L554.172 708.355L551.24 711.609L548.242 714.821L545.178 717.991L542.048 721.117L538.853 724.198L535.594 727.233L532.272 730.22L528.888 733.158L525.443 736.046L521.937 738.883L518.371 741.667L514.747 744.397L511.065 747.072L507.327 749.691L503.533 752.252L499.685 754.756L495.782 757.199L491.828 759.582L487.822 761.903L483.767 764.161L479.662 766.355L475.509 768.485L471.31 770.549L467.065 772.546L462.776 774.475L458.445 776.336L454.071 778.127L449.657 779.849L445.204 781.499L440.714 783.077L436.187 784.582L431.625 786.014L427.029 787.372L422.401 788.654L417.742 789.862L413.054 790.993L408.337 792.047L403.594 793.024L398.826 793.923L394.033 794.743L389.219 795.485L384.384 796.147L379.529 796.729L374.657 797.23L369.768 797.652L364.865 797.991L359.948 798.25L355.02 798.427L350.081 798.522L345.134 798.535L340.179 798.465L335.219 798.313L330.255 798.078L325.288 797.761L320.32 797.36L315.353 796.877L310.388 796.31L305.427 795.661L300.471 794.929L295.521 794.113L290.581 793.216L285.65 792.235L280.73 791.172L275.824 790.027L270.932 788.799L266.056 787.49L261.198 786.099L256.359 784.627L251.541 783.075L246.745 781.442L241.972 779.728L237.225 777.935L232.504 776.063L227.812 774.112L223.149 772.083L218.517 769.976L213.918 767.793L209.353 765.532L204.823 763.196L200.33 760.785L195.876 758.299L191.461 755.74L187.087 753.108L182.755 750.403L178.467 747.627L174.224 744.78L170.027 741.863L165.878 738.878L161.778 735.825L157.728 732.704L153.729 729.518L149.783 726.266L145.891 722.95L142.054 719.571L138.273 716.13L134.549 712.627L130.884 709.065L127.278 705.445L123.733 701.766L120.25 698.031L116.829 694.24L113.472 690.396L110.18 686.498L106.953 682.549L103.793 678.549L100.701 674.5L97.6767 670.403L94.7218 666.259L91.8371 662.07L89.0233 657.837L86.2812 653.562L83.6115 649.245L81.0151 644.888L78.4925 640.493L76.0445 636.061L73.6717 631.593L71.3748 627.091L69.1543 622.556L67.0107 617.99L64.9448 613.394L62.9568 608.77L61.0474 604.118L59.217 599.442L57.4659 594.741L55.7946 590.018L54.2035 585.275L52.6928 580.512L51.2629 575.731L49.914 570.933L48.6465 566.121L47.4604 561.296L46.3559 556.46L45.3333 551.613L44.3926 546.758L43.534 541.895L42.7574 537.027L42.063 532.156L41.4506 527.282L40.9203 522.407L40.472 517.533L40.1057 512.662L39.8211 507.794L39.6182 502.932L39.4967 498.076L39.4564 493.23L39.4972 488.393L39.6186 483.568L39.8205 478.756L40.1024 473.959L40.464 469.177L40.9049 464.414L41.4248 459.669L42.023 454.945L42.6993 450.244L43.4529 445.565L44.2835 440.912L45.1904 436.285L46.173 431.686L47.2308 427.116L48.363 422.577L49.5691 418.07L50.8482 413.596L52.1997 409.157L53.6228 404.754L55.1167 400.389L56.6806 396.063L58.3137 391.776L60.0152 387.531L61.784 383.328L63.6194 379.17L65.5203 375.056L67.4859 370.989L69.5152 366.969L71.6071 362.997L73.7606 359.076L75.9747 355.205L78.2483 351.386L80.5804 347.621L82.9698 343.909L85.4153 340.253L87.9159 336.652L90.4703 333.109L93.0775 329.624L95.7361 326.198L98.4449 322.832L101.203 319.527L104.008 316.284L106.86 313.103L109.758 309.986L112.699 306.932L115.683 303.944L118.707 301.021L121.772 298.165L124.876 295.376L128.016 292.654L131.192 290.001L134.403 287.416L137.646 284.901L140.921 282.456L144.226 280.082L147.56 277.779L150.921 275.547L154.307 273.387L157.718 271.299L161.152 269.284L164.607 267.342L168.082 265.473L171.576 263.677L175.086 261.956L178.612 260.308L182.151 258.735L185.703 257.236L189.266 255.811L192.838 254.461L196.418 253.186L200.005 251.985L203.596 250.859L207.191 249.808L210.787 248.831L214.384 247.928L217.98 247.1L221.573 246.346L225.162 245.667L228.745 245.061L232.321 244.528L235.889 244.069L239.446 243.683L242.992 243.37L246.526 243.129L250.044 242.96L253.547 242.862L257.033 242.836L260.5 242.88L263.947 242.994L267.372 243.178L270.774 243.431L274.152 243.753L277.505 244.142L280.83 244.598L284.128 245.121L287.395 245.71L290.632 246.364L293.836 247.083L297.007 247.865L300.143 248.709L303.244 249.616L306.307 250.584L309.331 251.612L312.316 252.7L315.26 253.846L318.162 255.049L321.021 256.309L323.836 257.625L326.606 258.996L329.329 260.419L332.005 261.896L334.632 263.423L337.21 265.001L339.738 266.629L342.214 268.304L344.638 270.026L347.009 271.794L349.326 273.607L351.587 275.463L353.793 277.361L355.943 279.3L358.034 281.278L360.068 283.295L362.043 285.35L363.958 287.439L365.813 289.564L367.607 291.722L369.34 293.911L371.01 296.131L372.618 298.38L374.162 300.657L375.642 302.96L377.059 305.288L378.41 307.64L379.696 310.014L380.917 312.408L382.072 314.822L383.16 317.254L384.182 319.702L385.137 322.166L386.025 324.642L386.845 327.131L387.598 329.631L388.283 332.139L388.901 334.656L389.45 337.178L389.931 339.706L390.344 342.236L390.689 344.768L390.966 347.301L391.175 349.833L391.316 352.362L391.389 354.887L391.394 357.406L391.332 359.919L391.202 362.423L391.005 364.917L390.741 367.399L390.411 369.869L390.014 372.325L389.551 374.765L389.023 377.188L388.429 379.592L387.771 381.977L387.048 384.34L386.262 386.68L385.412 388.997L384.499 391.288L383.524 393.552L382.487 395.788L381.389 397.995L380.231 400.17L379.014 402.314L377.737 404.424L376.402 406.5L375.01 408.54L373.56 410.543L372.055 412.507L370.495 414.431L368.881 416.315L367.213 418.157L365.493 419.956L363.721 421.71L361.899 423.42L360.027 425.082L358.106 426.697L356.138 428.264L354.123 429.781L352.063 431.247L349.959 432.661L347.811 434.023L345.621 435.331L343.39 436.585L341.118 437.783L338.809 438.925L336.461 440.01L334.078 441.036L331.659 442.004L329.207 442.913L326.722 443.761L324.205 444.548L321.659 445.273L319.084 445.935L316.481 446.535L313.853 447.071L311.199 447.542L308.523 447.949L305.824 448.29L303.105 448.565L300.367 448.774L297.61 448.915L294.838 448.99L292.05 448.996L289.249 448.935L286.436 448.805L283.612 448.607L280.779 448.339L277.938 448.002L275.091 447.596L272.238 447.119L269.383 446.573L266.526 445.957L263.668 445.271L260.811 444.515L257.957 443.688L255.106 442.791L252.262 441.824L249.424 440.787L246.594 439.679L243.775 438.502L240.967 437.254L238.171 435.937L235.39 434.551L232.625 433.095L229.877 431.57L227.148 429.976L224.439 428.314L221.752 426.584L219.087 424.786L216.447 422.921L213.833 420.989L211.247 418.991L208.689 416.926L206.161 414.797L203.665 412.602L201.201 410.343L198.772 408.021L196.378 405.635L194.022 403.187L191.703 400.678L189.424 398.107L187.186 395.476L184.991 392.786L182.838 390.037L180.731 387.23L178.669 384.366L176.654 381.446L174.688 378.47L172.771 375.441L170.905 372.358L169.09 369.222L167.329 366.035L165.622 362.798L163.97 359.511L162.374 356.176L160.835 352.794L159.355 349.365L157.934 345.891L156.573 342.374L155.274 338.814L154.036 335.212L152.862 331.57L151.752 327.889L150.707 324.17L149.727 320.414L148.814 316.623L147.968 312.798L147.191 308.94L146.482 305.051L145.842 301.131L145.273 297.183L144.775 293.207L144.348 289.206L143.993 285.179L143.711 281.13L143.503 277.058L143.368 272.967L143.307 268.856L143.321 264.728L143.41 260.584L143.575 256.425L143.815 252.254L144.132 248.07L144.526 243.877L144.996 239.675L145.544 235.465L146.169 231.251L146.871 227.032L147.652 222.81L148.51 218.588L149.446 214.366L150.46 210.146L151.553 205.929L152.723 201.718L153.972 197.513L155.299 193.316L156.704 189.129L158.187 184.954L159.747 180.79L161.386 176.642L163.101 172.509L164.894 168.393L166.764 164.296L168.711 160.219L170.734 156.164L172.833 152.133L175.008 148.126L177.257 144.146L179.582 140.193L181.981 136.27L184.454 132.377L187.001 128.517L189.62 124.69L192.311 120.898L195.074 117.143L197.908 113.425L200.813 109.747L203.787 106.11L206.83 102.514L209.941 98.9621L213.12 95.4546L216.365 91.9933L219.676 88.5792L223.052 85.2139L226.492 81.8984L229.995 78.6342L233.561 75.4224L237.187 72.2642L240.875 69.1609L244.621 66.1137L248.426 63.1236L252.288 60.192L256.206 57.3198L260.18 54.5083L264.207 51.7584L268.288 49.0713L272.42 46.448L276.603 43.8895L280.835 41.3967L285.115 38.9708L289.442 36.6126L293.815 34.3231L298.233 32.1032L302.693 29.9536L307.195 27.8753L311.738 25.8692L316.32 23.9359L320.94 22.0763L325.596 20.2911L330.288 18.5811L335.013 16.9469L339.77 15.3892L344.559 13.9086L349.376 12.5058L354.222 11.1812L359.094 9.93555L363.991 8.76926L368.912 7.68286L373.855 6.67682L378.818 5.75157L383.801 4.90749L388.801 4.14499L393.817 3.46441L398.848 2.86607L403.892 2.35023L408.947 1.91718L414.012 1.56711L419.086 1.30027L424.166 1.11678L429.252 1.01677L434.341 1.00039L439.433 1.0677L444.525 1.21872L449.616 1.45348L454.705 1.77195L459.789 2.17411L464.868 2.65987L469.939 3.22911L475.002 3.88167L480.055 4.61744L485.096 5.43616L490.123 6.33764L495.135 7.32159L500.131 8.38773L505.109 9.53573L510.067 10.7653L515.005 12.0759L519.92 13.4673L524.81 14.939L529.676 16.4905L534.514 18.1213L539.324 19.8309L544.103 21.6187L548.852 23.4842L553.567 25.4267L558.249 27.4457L562.894 29.5403L567.503 31.7099L572.073 33.9539L576.604 36.2714L581.093 38.6618L585.54 41.124L589.943 43.6575L594.3 46.2612L598.612 48.9343L602.875 51.6759L607.09 54.4851L611.255 57.3609L615.368 60.3024L619.428 63.3085L623.435 66.3782L627.387 69.5104L631.283 72.7042L635.122 75.9584L638.902 79.2718L642.623 82.6434L646.284 86.072L649.884 89.5564L653.421 93.0954L656.894 96.6879L660.304 100.332L663.648 104.028L666.926 107.773L670.136 111.567L673.279 115.407L676.354 119.294L679.359 123.225L682.293 127.199L685.156 131.214L687.948 135.27L690.667 139.365L693.314 143.497L695.886 147.666L698.384 151.869L700.807 156.105L703.155 160.373L705.427 164.671L707.622 168.999L709.74 173.353L711.781 177.734L713.744 182.139L715.629 186.566L717.435 191.015L719.162 195.484L720.811 199.972L722.38 204.476L723.869 208.995L725.278 213.528L726.608 218.073L727.857 222.629L729.026 227.194L730.115 231.766L731.123 236.345L732.051 240.928L732.899 245.514L733.666 250.101L734.354 254.688L734.96 259.274L735.488 263.856L735.935 268.433L736.302 273.004L736.591 277.567L736.8 282.121L736.93 286.664L736.982 291.195L736.955 295.711L736.851 300.213L736.669 304.697L736.411 309.164L736.076 313.61L735.665 318.035L735.178 322.438L734.616 326.816L733.98 331.169L733.271 335.495L732.488 339.793L731.633 344.061L730.705 348.298L729.707 352.502L728.639 356.673L727.501 360.808L726.294 364.907L725.019 368.969L723.677 372.991L722.269 376.973L720.795 380.914L719.257 384.812L717.655 388.666L715.991 392.475L714.266 396.238L712.479 399.954L710.634 403.621L708.729 407.238L706.768 410.805L704.75 414.32L702.676 417.782L700.549 421.19L698.369 424.544L696.137 427.842L693.854 431.084L691.522 434.268L689.142 437.393L686.715 440.459L684.243 443.465L681.726 446.41L679.166 449.293L676.564 452.114L673.922 454.872L671.24 457.565L668.521 460.194L665.766 462.758L662.975 465.256L660.151 467.687L657.294 470.051L654.407 472.348L651.49 474.576L648.545 476.736L645.574 478.827L642.577 480.848L639.557 482.8L636.514 484.681L633.451 486.492L630.368 488.232L627.268 489.9L624.151 491.498L621.019 493.023L617.874 494.477L614.716 495.859L611.549 497.169L608.372 498.407L605.188 499.572L601.998 500.665L598.803 501.686L595.606 502.635L592.407 503.511L589.208 504.315L586.01 505.048L582.816 505.708L579.626 506.297L576.441 506.814L573.264 507.26L570.096 507.635L566.939 507.94L563.793 508.174L560.66 508.338L557.542 508.432L554.439 508.458L551.355 508.414L548.289 508.302L545.243 508.123L542.219 507.876L539.219 507.562L536.242 507.182L533.291 506.737L530.368 506.227L527.472 505.652L524.607 505.014L521.772 504.313L518.97 503.551L516.201 502.726L513.467 501.842L510.77 500.897L508.109 499.894L505.487 498.832L502.904 497.714L500.362 496.539L497.862 495.309L495.406 494.025L492.993 492.687L490.625 491.297L488.304 489.856L486.03 488.364L483.805 486.823L481.629 485.235L479.503 483.599L477.428 481.917L475.406 480.191L473.436 478.421L471.521 476.609L469.66 474.755L467.855 472.862L466.106 470.93L464.415 468.96L462.782 466.954L461.207 464.913L459.692 462.839L458.237 460.732L456.842 458.595L455.509 456.428L454.238 454.232L453.029 452.009L451.883 449.761L450.801 447.489L449.783 445.194L448.829 442.877L447.94 440.54L447.117 438.185L446.359 435.813L445.667 433.425L445.041 431.022L444.482 428.607L443.99 426.18L443.565 423.743L443.207 421.298L442.916 418.846L442.693 416.388L442.538 413.926L442.45 411.462L442.43 408.996L442.478 406.531L442.593 404.067L442.776 401.607L443.027 399.151L443.345 396.702L443.73 394.26L444.183 391.827L444.702 389.405L445.288 386.995L445.941 384.598L446.66 382.216L447.444 379.85L448.295 377.502L449.21 375.174L450.19 372.866L451.234 370.58L452.342 368.317L453.514 366.079L454.748 363.867L456.044 361.683L457.403 359.528L458.822 357.402L460.302 355.309L461.841 353.248L463.44 351.221L465.097 349.23L466.812 347.276L468.584 345.359L470.411 343.482L472.294 341.645L474.232 339.85L476.223 338.098L478.267 336.389L480.363 334.726L482.509 333.109L484.706 331.54L486.951 330.019L489.244 328.548L491.584 327.128L493.97 325.759L496.401 324.443L498.876 323.18L501.393 321.973L503.951 320.821L506.55 319.725L509.188 318.688L511.864 317.708L514.577 316.788L517.325 315.927L520.108 315.128L522.923 314.39L525.77 313.715L528.648 313.103L531.555 312.554L534.49 312.071L537.452 311.652L540.438 311.299L543.448 311.012L546.481 310.793L549.535 310.641L552.609 310.557L555.701 310.541L558.81 310.595L561.934 310.717L565.073 310.91L568.224 311.173L571.386 311.506L574.558 311.91L577.738 312.385L580.924 312.931L584.117 313.549L587.313 314.239L590.511 315L593.71 315.834L596.909 316.74L600.105 317.718L603.298 318.768L606.486 319.891L609.667 321.086L612.84 322.353L616.004 323.692L619.156 325.103L622.296 326.587L625.422 328.141L628.533 329.768L631.626 331.465L634.701 333.234L637.756 335.074L640.79 336.984L643.801 338.964L646.787 341.013L649.748 343.132L652.682 345.32L655.587 347.577L658.462 349.901L661.305 352.292L664.116 354.751L666.893 357.275L669.633 359.866L672.337 362.521L675.003 365.241L677.629 368.024L680.214 370.87L682.756 373.779L685.255 376.749L687.709 379.78L690.117 382.87L692.478 386.019L694.79 389.227L697.052 392.491L699.263 395.812L701.422 399.188L703.527 402.619L705.578 406.103L707.574 409.639L709.512 413.226L711.393 416.864L713.214 420.551L714.976 424.286L716.677 428.068L718.315 431.895L719.891 435.768L721.403 439.683L722.85 443.641L724.232 447.64L725.546 451.678L726.794 455.755L727.973 459.869L729.082 464.019L730.122 468.204L731.092 472.421L731.99 476.671L732.816 480.951L733.569 485.261L734.248 489.598L734.854 493.961L735.385 498.35L735.841 502.761L736.221 507.196L736.525 511.65L736.753 516.124L736.903 520.616L736.976 525.124L736.97 529.646L736.887 534.182L736.724 538.73L736.483 543.287L736.162 547.854L735.762 552.428L735.283 557.007L734.723 561.591L734.083 566.177L733.363 570.765L732.563 575.351L731.683 579.936L730.722 584.518L729.681 589.094L728.559 593.663L727.358 598.225L726.076 602.777L724.714 607.317L723.272 611.845L721.75 616.358L720.149 620.855L718.468 625.335L716.709 629.796L714.87 634.237L712.954 638.655L710.959 643.051L708.887 647.421L706.737 651.764L704.511 656.08L702.208 660.366L699.829 664.622L697.376 668.845L694.847 673.034L692.245 677.188L689.569 681.305L686.82 685.384L683.999 689.424L681.106 693.422L678.143 697.379L675.11 701.292L672.007 705.16L668.837 708.981L665.598 712.755L662.293 716.48L658.923 720.155L655.487 723.779L651.987 727.35L648.425 730.867L644.8 734.328L641.115 737.734L637.369 741.082L633.565 744.371L629.703 747.601L625.784 750.77L621.81 753.877L617.781 756.921L613.699 759.901L609.564 762.815L605.379 765.664L601.144 768.446L596.861 771.16L592.531 773.805L588.154 776.38L583.733 778.885L579.269 781.318L574.763 783.678L570.216 785.966L565.63 788.18L561.006 790.319L556.346 792.383L551.651 794.371L546.921 796.282L542.16 798.116L537.368 799.872L532.546 801.549L527.697 803.148L522.821 804.667L517.92 806.106L512.996 807.465L508.05 808.742L503.084 809.939L498.098 811.053L493.095 812.086L488.077 813.036L483.044 813.904L477.998 814.689L472.941 815.391L467.874 816.01L462.8 816.545L457.718 816.997L452.632 817.365L447.542 817.649L442.451 817.85L437.359 817.967L432.268 818L427.18 817.949L422.096 817.816L417.018 817.598L411.948 817.297L406.887 816.913L401.836 816.447L396.797 815.897L391.772 815.265L386.762 814.551L381.769 813.755L376.794 812.878L371.839 811.92L366.905 810.881L361.993 809.762L357.106 808.564L352.245 807.286L347.41 805.929L342.604 804.495L337.829 802.983L333.084 801.394L328.373 799.728L323.695 797.988L319.054 796.172L314.449 794.282L309.883 792.319L305.356 790.284L300.871 788.176L296.428 785.998L292.029 783.749L287.674 781.432L283.366 779.046L279.105 776.593L274.893 774.073L270.731 771.488L266.619 768.839L262.56 766.126L258.555 763.351L254.604 760.515L250.708 757.618L246.869 754.662L243.088 751.649L239.365 748.579L235.703 745.453L232.101 742.273L228.56 739.039L225.083 735.754L221.669 732.418L218.319 729.033L215.035 725.599L211.817 722.119L208.665 718.593L205.582 715.023L202.567 711.41L199.621 707.756L196.745 704.062L193.94 700.329L191.206 696.558L188.544 692.752L185.955 688.912L183.438 685.038L180.995 681.132L178.626 677.197L176.332 673.233L174.113 669.242L171.969 665.225L169.901 661.184L167.909 657.12L165.993 653.035L164.155 648.93L162.393 644.807L160.709 640.667L159.102 636.512L157.573 632.344L156.122 628.163L154.749 623.972L153.454 619.772L152.237 615.564L151.098 611.351L150.038 607.132L149.055 602.911L148.151 598.689L147.324 594.467L146.576 590.246L145.905 586.029L145.311 581.816L144.795 577.61L144.356 573.411L143.994 569.221L143.708 565.042L143.498 560.876L143.365 556.723L143.306 552.585L143.323 548.464L143.414 544.361L143.579 540.277L143.817 536.215L144.129 532.175L144.513 528.158L144.969 524.167L145.496 520.202L146.094 516.266L146.762 512.358L147.499 508.482L148.305 504.637L149.178 500.825L150.118 497.049L151.125 493.308L152.196 489.604L153.333 485.939L154.533 482.313L155.795 478.728L157.12 475.185L158.505 471.685L159.951 468.23L161.455 464.82L163.017 461.457L164.636 458.141L166.311 454.874L168.04 451.657L169.823 448.491L171.659 445.377L173.546 442.316L175.483 439.308L177.469 436.355L179.503 433.458L181.584 430.617L183.71 427.833L185.88 425.108L188.093 422.442L190.348 419.835L192.643 417.29L194.977 414.805L197.349 412.382L199.757 410.022L202.201 407.726L204.678 405.493L207.187 403.325L209.727 401.222L212.297 399.184L214.895 397.213L217.52 395.308L220.17 393.47L222.844 391.7L225.54 389.997L228.258 388.363L230.995 386.797L233.75 385.301L236.521 383.873L239.308 382.515L242.109 381.226L244.922 380.007L247.746 378.858L250.579 377.779L253.42 376.771L256.267 375.832L259.119 374.964L261.974 374.166L264.832 373.438L267.69 372.78L270.546 372.193L273.401 371.675L276.251 371.227L279.096 370.849L281.934 370.541L284.763 370.301L287.583 370.13L290.392 370.029L293.187 369.995L295.969 370.029L298.735 370.131L301.484 370.3L304.215 370.536L306.926 370.838L309.616 371.206L312.283 371.639L314.926 372.137L317.545 372.699L320.136 373.324L322.7 374.012L325.234 374.762L327.738 375.574L330.21 376.447L332.649 377.38L335.053 378.372L337.422 379.422L339.754 380.53L342.048 381.695L344.303 382.916L346.518 384.192L348.691 385.522L350.821 386.906L352.908 388.341L354.95 389.828L356.945 391.365L358.894 392.952L360.795 394.586L362.647 396.268L364.449 397.996L366.2 399.768L367.899 401.585L369.545 403.444L371.137 405.345L372.675 407.286L374.158 409.266L375.584 411.284L376.953 413.338L378.264 415.428L379.517 417.552L380.71 419.709L381.844 421.898L382.917 424.116L383.928 426.364L384.878 428.639L385.765 430.941L386.59 433.267L387.35 435.617L388.047 437.989L388.679 440.382L389.246 442.794L389.748 445.224L390.184 447.671L390.554 450.132L390.857 452.607L391.094 455.095L391.263 457.593L391.365 460.101L391.4 462.616L391.367 465.138L391.267 467.665L391.098 470.195L390.862 472.727L390.557 475.26L390.184 477.792L389.743 480.321L389.234 482.847L388.658 485.367L388.013 487.881L387.3 490.386L386.519 492.881L385.671 495.365L384.756 497.836L383.774 500.294L382.725 502.735L381.609 505.16L380.428 507.566L379.18 509.953L377.867 512.318L376.489 514.66L375.047 516.978L373.541 519.271L371.97 521.536L370.337 523.774L368.642 525.982L366.884 528.158L365.065 530.302L363.185 532.413L361.246 534.489L359.247 536.528L357.189 538.529L355.074 540.492L352.901 542.414L350.673 544.296L348.389 546.134L346.05 547.929L343.657 549.678L341.212 551.381L338.715 553.037L336.166 554.644L333.568 556.202L330.921 557.709L328.225 559.164L325.483 560.566L322.695 561.914L319.862 563.207L316.985 564.445L314.066 565.625L311.105 566.747L308.104 567.811L305.063 568.814L301.985 569.758L298.87 570.639L295.72 571.458L292.535 572.215L289.317 572.907L286.068 573.534L282.788 574.096L279.479 574.592L276.142 575.022L272.779 575.383L269.391 575.677L265.979 575.902L262.545 576.058L259.09 576.143L255.615 576.159L252.122 576.103L248.613 575.977L245.088 575.779L241.549 575.508L237.999 575.165L234.437 574.75L230.865 574.261L227.286 573.698L223.7 573.062L220.109 572.352L216.515 571.568L212.919 570.71L209.322 569.777L205.726 568.77L202.133 567.688L198.543 566.532L194.959 565.301L191.382 563.995L187.813 562.614L184.255 561.16L180.708 559.63L177.174 558.027L173.654 556.349L170.151 554.597L166.665 552.772L163.197 550.873L159.751 548.901L156.326 546.856L152.925 544.739L149.549 542.55L146.199 540.288L142.876 537.956L139.583 535.553L136.321 533.079L133.091 530.536L129.894 527.924L126.732 525.242L123.607 522.493L120.519 519.676L117.47 516.793L114.462 513.843L111.496 510.828L108.572 507.749L105.693 504.606L102.86 501.399L100.074 498.131L97.3355 494.801L94.647 491.41L92.0092 487.96L89.4234 484.451L86.8907 480.885L84.4124 477.262L81.9896 473.583L79.6234 469.849L77.3151 466.061L75.0656 462.221L72.876 458.33L70.7474 454.388L68.6809 450.397L66.6775 446.357L64.7381 442.271L62.8638 438.139L61.0554 433.962L59.3139 429.742L57.6402 425.48L56.0352 421.177L54.4997 416.834L53.0345 412.453L51.6405 408.036L50.3184 403.583L49.0689 399.095L47.8929 394.575L46.7909 390.023L45.7636 385.441L44.8118 380.83L43.9359 376.193L43.1366 371.529L42.4144 366.841L41.7699 362.13L41.2035 357.397L40.7158 352.645L40.3071 347.874L39.9779 343.086L39.7285 338.282L39.5594 333.465L39.4708 328.635L39.463 323.794L39.5364 318.944L39.691 314.085L39.9272 309.221L40.245 304.351L40.6447 299.479L41.1264 294.604L41.6901 289.73L42.3359 284.856L43.0638 279.986L43.8738 275.12L44.7659 270.261L45.74 265.409L46.7959 260.566L47.9337 255.734L49.153 250.914L50.4537 246.108L51.8356 241.317L53.2985 236.543L54.8419 231.787L56.4658 227.052L58.1696 222.338L59.953 217.647L61.8157 212.981L63.7572 208.34L65.7769 203.727L67.8746 199.143L70.0495 194.59L72.3012 190.068L74.6291 185.58L77.0326 181.126L79.5111 176.709L82.0638 172.329L84.6902 167.989L87.3895 163.689L90.1609 159.43L93.0037 155.215L95.9171 151.045L98.9002 146.92L101.952 142.842L105.072 138.813L108.26 134.834L111.513 130.905L114.832 127.029L118.215 123.206L121.661 119.438L125.17 115.726L128.74 112.07L132.37 108.473L136.059 104.936L139.806 101.458L143.61 98.0421L147.47 94.6886L151.384 91.3987L155.352 88.1734L159.371 85.0136L163.442 81.9203L167.562 78.8945L171.731 75.937L175.947 73.0488L180.208 70.2307L184.514 67.4836L188.863 64.8082L193.254 62.2055L197.686 59.676L202.156 57.2205L206.664 54.8399L211.208 52.5346L215.788 50.3055L220.4 48.153L225.045 46.0779L229.72 44.0806L234.424 42.1617L239.155 40.3218L243.913 38.5612L248.695 36.8804L253.501 35.2799L258.328 33.7601L263.175 32.3212L268.04 30.9637L272.923 29.6878L277.821 28.4939L282.733 27.382L287.657 26.3526L292.592 25.4056L297.537 24.5414L302.489 23.7599L307.447 23.0614L312.41 22.4457L317.376 21.9131L322.344 21.4634L327.311 21.0967L332.277 20.8128L337.24 20.6117L342.198 20.4933L347.15 20.4573L352.094 20.5036L357.029 20.632L361.953 20.8423L366.864 21.1341L371.762 21.5072L376.644 21.9612L381.509 22.4957L386.356 23.1104L391.183 23.8048L395.988 24.5785L400.771 25.4309L405.529 26.3616L410.262 27.3701L414.967 28.4557L419.643 29.6179L424.29 30.856L428.905 32.1694L433.487 33.5574L438.035 35.0193L442.547 36.5543L447.023 38.1618L451.46 39.8408L455.858 41.5907L460.214 43.4105L464.529 45.2994L468.8 47.2565L473.026 49.2809L477.206 51.3716L481.34 53.5277L485.425 55.7482L489.46 58.0322L493.445 60.3784L497.378 62.786L501.259 65.2539L505.085 67.7809L508.857 70.3659L512.572 73.0078L516.23 75.7054L519.831 78.4576L523.372 81.2632L526.854 84.1209L530.274 87.0295L533.633 89.9878L536.929 92.9945L540.162 96.0483L543.331 99.148L546.434 102.292L549.472 105.479L552.443 108.709L555.346 111.978L558.182 115.287L560.949 118.633L563.647 122.016L566.275 125.434L568.833 128.885L571.319 132.369L573.734 135.882L576.078 139.426L578.348 142.996L580.546 146.594L582.671 150.215L584.722 153.861L586.699 157.528L588.602 161.215L590.43 164.921L592.184 168.645L593.862 172.384L595.466 176.138L596.994 179.905L598.446 183.682L599.823 187.47L601.124 191.266L602.349 195.068L603.499 198.876L604.573 202.688L605.572 206.501L606.495 210.316L607.342 214.13L608.114 217.941L608.811 221.748L609.433 225.55L609.981 229.345L610.454 233.132L610.853 236.91L611.178 240.675L611.429 244.429L611.608 248.167L611.714 251.891L611.747 255.597L611.709 259.284L611.6 262.952L611.419 266.598L611.169 270.222L610.849 273.821L610.46 277.395L610.002 280.942L609.477 284.461L608.885 287.95L608.226 291.408L607.502 294.835L606.713 298.227L605.86 301.585L604.944 304.907L603.966 308.191L602.926 311.438L601.825 314.644L600.664 317.81L599.445 320.933L598.168 324.014L596.834 327.05L595.445 330.041L594 332.985L592.502 335.881L590.951 338.73L589.348 341.528L587.695 344.276L585.993 346.972L584.242 349.616L582.444 352.207L580.601 354.743L578.712 357.224L576.781 359.648L574.806 362.016L572.791 364.327L570.737 366.578L568.643 368.771L566.513 370.903L564.347 372.975L562.146 374.986L559.912 376.935L557.646 378.821L555.35 380.644L553.025 382.403L550.672 384.098L548.292 385.728L545.888 387.293L543.46 388.793L541.01 390.226L538.539 391.593L536.049 392.893L533.541 394.126L531.017 395.292L528.478 396.39L525.925 397.419L523.361 398.381L520.785 399.275L518.201 400.1L515.609 400.856L513.011 401.544L510.408 402.162L507.802 402.713L505.195 403.194L502.587 403.607L499.98 403.95L497.376 404.226L494.776 404.433L492.181 404.571L489.594 404.642L487.015 404.644L484.446 404.579L481.888 404.446L479.344 404.247L476.813 403.98L474.298 403.647L471.801 403.248L469.321 402.784L466.862 402.254L464.424 401.659L462.009 401.001L459.617 400.278L457.252 399.493L454.912 398.645L452.601 397.735L450.32 396.764L448.069 395.732L445.85 394.64L443.664 393.489L441.513 392.28L439.398 391.013L437.319 389.689L435.279 388.309L433.278 386.874L431.318 385.384L429.4 383.841L427.525 382.246L425.693 380.599L423.907 378.901L422.167 377.154L420.474 375.358L418.83 373.514L417.235 371.624L415.691 369.688L414.197 367.709L412.756 365.685L411.369 363.62L410.035 361.514L408.757 359.368L407.534 357.183L406.368 354.961L405.26 352.702L404.21 350.409L403.219 348.082L402.288 345.723L401.418 343.332L400.608 340.912L399.861 338.463L399.176 335.987L398.555 333.485L397.997 330.958L397.503 328.409L397.074 325.837L396.711 323.246L396.413 320.635L396.181 318.007L396.016 315.362L395.918 312.703L395.888 310.031L395.924 307.347L396.029 304.652L396.203 301.948L396.444 299.237L396.754 296.52L397.133 293.798L397.581 291.073L398.099 288.347L398.685 285.62L399.34 282.895L400.065 280.173L400.859 277.454L401.723 274.742L402.655 272.037L403.656 269.34L404.727 266.654L405.866 263.979L407.074 261.317L408.35 258.67L409.694 256.04L411.106 253.426L412.586 250.832L414.133 248.258L415.746 245.706L417.427 243.177L419.173 240.672L420.985 238.194L422.862 235.744L424.803 233.322L426.809 230.931L428.878 228.571L431.01 226.245L433.205 223.952L435.461 221.696L437.778 219.477L440.155 217.296L442.592 215.154L445.088 213.054L447.642 210.996L450.252 208.981L452.92 207.012L455.643 205.088L458.42 203.211L461.251 201.383L464.136 199.604L467.072 197.876L470.058 196.199L473.095 194.576L476.181 193.006L479.314 191.492L482.494 190.034L485.72 188.633L488.99 187.29L492.304 186.006L495.66 184.782L499.058 183.62L502.495 182.519L505.971 181.482L509.484 180.508L513.034 179.598L516.618 178.754L520.237 177.976L523.887 177.266L527.569 176.622L531.281 176.048L535.021 175.542L538.788 175.106L542.581 174.741L546.398 174.447L550.239 174.224L554.1 174.073L557.982 173.995L561.883 173.991L565.801 174.06L569.735 174.203L573.683 174.42L577.644 174.713L581.617 175.08L585.6 175.523L589.591 176.042L593.589 176.638L597.592 177.309L601.6 178.057L605.61 178.882L609.621 179.784L613.631 180.763L617.64 181.818L621.644 182.951L625.644 184.161L629.637 185.448L633.622 186.813L637.598 188.254L641.562 189.772L645.514 191.367L649.451 193.039L653.373 194.787L657.277 196.612L661.162 198.512L665.028 200.488L668.872 202.54L672.692 204.666L676.488 206.868L680.257 209.143L683.999 211.493L687.712 213.916L691.394 216.411L695.045 218.98L698.661 221.62L702.244 224.331L705.789 227.113L709.297 229.965L712.766 232.887L716.195 235.877L719.582 238.935L722.925 242.06L726.224 245.252L729.478 248.51L732.684 251.832L735.842 255.219L738.95 258.669L742.007 262.181L745.013 265.754L747.965 269.388L750.862 273.081L753.703 276.833L756.488 280.642L759.215 284.507L761.882 288.428L764.489 292.402L767.035 296.431L769.518 300.511L771.939 304.641L774.294 308.822L776.584 313.051L778.808 317.327L780.965 321.649L783.053 326.017L785.072 330.427L787.021 334.88L788.899 339.374L790.705 343.907L792.439 348.479L794.1 353.087L795.686 357.731L797.198 362.41L798.635 367.121L799.995 371.863L801.279 376.635L802.486 381.436L803.614 386.264L804.665 391.118L805.636 395.996L806.528 400.896L807.34 405.818L808.072 410.759L808.723 415.718L809.293 420.695L809.781 425.686L810.188 430.691L810.513 435.708L810.755 440.735L810.915 445.772L810.992 450.815L810.987 455.865L810.898 460.919L810.726 465.976L810.471 471.034L810.133 476.092L809.712 481.148L809.207 486.201L808.619 491.248L807.948 496.289L807.195 501.321L806.358 506.344L805.439 511.356L804.437 516.355L803.353 521.339L802.187 526.308L800.939 531.259L799.61 536.191L798.2 541.103L796.71 545.992L795.139 550.858L793.489 555.699L791.759 560.514L789.95 565.3L788.063 570.058L786.099 574.784L784.057 579.478L781.939 584.137L779.745 588.762L777.475 593.35L775.132 597.9L772.714 602.411L770.223 606.88L767.661 611.308L765.026 615.692L762.322 620.031L759.547 624.324L756.703 628.57L753.792 632.766L750.813 636.913L747.769 641.009L744.659 645.052L741.485 649.042L738.248 652.976L734.949 656.855L731.59 660.677L728.17 664.44L724.691 668.144L721.155 671.788L717.563 675.37L713.915 678.89L710.213 682.346L706.458 685.738L702.651 689.064L698.794 692.325L694.888 695.517L690.935 698.642L686.934 701.698L682.889 704.684L678.799 707.599L674.667 710.443L670.494 713.215L666.281 715.914L662.029 718.539L657.741 721.09L653.417 723.567L649.059 725.967L644.668 728.292L640.246 730.54L635.795 732.711L631.315 734.805L626.808 736.82L622.276 738.756L617.719 740.614L613.141 742.393L608.542 744.091L603.923 745.71L599.287 747.249L594.635 748.707L589.967 750.084L585.287 751.38L580.595 752.595L575.893 753.729L571.182 754.781L566.464 755.752L561.741 756.641L557.014 757.449L552.285 758.176L547.554 758.821L542.825 759.384L538.098 759.867L533.374 760.268L528.656 760.588L523.945 760.827L519.242 760.986L514.549 761.065L509.868 761.063L505.2 760.982L500.545 760.822L495.907 760.582L491.287 760.264L486.685 759.868L482.104 759.394L477.544 758.844L473.008 758.216L468.496 757.512L464.011 756.733L459.553 755.879L455.124 754.951L450.725 753.949L446.359 752.874L442.025 751.727L437.725 750.509L433.462 749.22L429.235 747.861L425.047 746.432L420.898 744.936L416.79 743.372L412.725 741.742L408.702 740.046L404.725 738.286L400.793 736.462L396.908 734.575L393.071 732.627L389.283 730.618L385.545 728.549L381.859 726.422L378.225 724.238L374.645 721.998L371.119 719.702L367.648 717.352L364.234 714.949L360.878 712.495L357.579 709.991L354.34 707.437L351.161 704.836L348.043 702.187L344.986 699.494L341.992 696.756L339.062 693.976L336.195 691.154L333.393 688.292L330.657 685.392L327.986 682.454L325.383 679.48L322.846 676.471L320.378 673.429L317.978 670.356L315.647 667.252L313.385 664.119L311.193 660.959L309.072 657.772L307.021 654.561L305.041 651.327L303.133 648.072L301.297 644.796L299.533 641.501L297.84 638.189L296.221 634.862L294.674 631.52L293.2 628.165L291.799 624.8L290.472 621.424L289.217 618.04L288.036 614.65L286.927 611.254L285.893 607.855L284.931 604.453L284.042 601.051L283.227 597.65L282.484 594.25L281.814 590.855L281.216 587.465L280.691 584.081L280.238 580.706L279.857 577.34L279.546 573.985L279.307 570.643L279.139 567.315L279.041 564.003L279.013 560.707L279.054 557.43L279.164 554.173L279.343 550.936L279.589 547.722L279.903 544.532L280.283 541.368L280.73 538.229L281.242 535.119L281.818 532.038L282.459 528.988L283.162 525.969L283.929 522.984L284.757 520.033L285.646 517.118L286.595 514.239L287.603 511.399L288.67 508.598L289.794 505.837L290.975 503.118L292.211 500.442L293.502 497.809L294.846 495.222L296.243 492.68L297.692 490.186L299.191 487.74L300.74 485.342L302.336 482.995L303.98 480.699L305.67 478.455L307.405 476.264L309.184 474.127L311.005 472.044L312.867 470.017L314.769 468.046L316.711 466.133L318.689 464.277L320.705 462.48L322.755 460.742L324.839 459.064L326.955 457.447L329.102 455.891L331.279 454.398L333.485 452.966L335.717 451.598L337.975 450.294L340.258 449.053L342.563 447.877L344.889 446.766L347.236 445.72L349.601 444.741L351.984 443.827L354.382 442.98L356.795 442.199L359.22 441.485L361.657 440.839L364.104 440.26L366.559 439.749L369.022 439.305L371.49 438.929L373.962 438.621L376.437 438.381L378.913 438.21L381.389 438.106L383.863 438.07L386.334 438.102L388.8 438.201L391.26 438.369L393.713 438.604L396.156 438.906L398.589 439.275L401.011 439.711L403.418 440.214L405.811 440.783L408.188 441.418L410.547 442.118L412.887 442.884L415.207 443.714L417.505 444.609L419.779 445.568L422.029 446.589L424.253 447.674L426.45 448.821L428.618 450.029L430.755 451.298L432.862 452.628L434.936 454.017L436.976 455.466L438.981 456.972L440.949 458.536L442.88 460.157L444.772 461.834L446.624 463.566L448.434 465.352L450.202 467.191L451.926 469.083L453.606 471.026L455.239 473.02L456.825 475.063L458.364 477.155L459.853 479.295L461.292 481.481L462.68 483.713L464.015 485.989L465.297 488.308L466.525 490.67L467.698 493.072L468.815 495.515L469.875 497.996L470.878 500.514L471.821 503.069L472.706 505.659L473.53 508.283L474.293 510.939L474.995 513.627L475.634 516.345L476.21 519.091L476.722 521.864L477.17 524.664L477.553 527.488L477.87 530.336L478.122 533.205L478.307 536.095L478.424 539.004L478.474 541.931L478.456 544.874L478.37 547.832L478.215 550.804L477.99 553.787L477.697 556.781L477.333 559.784L476.899 562.795L476.396 565.812L475.822 568.834L475.177 571.859L474.461 574.885L473.675 577.912L472.817 580.938L471.889 583.961L470.889 586.98L469.819 589.993L468.678 592.999L467.465 595.996L466.182 598.984L464.828 601.959L463.404 604.922L461.909 607.869L460.344 610.801L458.71 613.715L457.006 616.611L455.232 619.485L453.389 622.338L451.478 625.167L449.499 627.972L447.452 630.75L445.338 633.501L443.157 636.222L440.909 638.913L438.596 641.572L436.217 644.198L433.774 646.789L431.267 649.344L428.697 651.862L426.064 654.341L423.369 656.78L420.613 659.177L417.796 661.532L414.92 663.843L411.985 666.108L408.991 668.328L405.941 670.499L402.835 672.622L399.673 674.694L396.456 676.715L393.186 678.683L389.864 680.598L386.49 682.459L383.066 684.263L379.592 686.01L376.07 687.7L372.501 689.33L368.886 690.9L365.225 692.41L361.521 693.857L357.774 695.241L353.986 696.561L350.158 697.816L346.29 699.006L342.385 700.129L338.443 701.185L334.467 702.173L330.456 703.091L326.413 703.94L322.338 704.718L318.234 705.425L314.101 706.061L309.941 706.623L305.755 707.113L301.545 707.529L297.311 707.87L293.057 708.137L288.782 708.329L284.489 708.444L280.178 708.484L275.852 708.446L271.511 708.332L267.158 708.14L262.793 707.87L258.419 707.522L254.036 707.096L249.647 706.591L245.252 706.008L240.854 705.345L236.454 704.603L232.053 703.782L227.652 702.881L223.254 701.901L218.86 700.842L214.472 699.703L210.09 698.484L205.717 697.186L201.354 695.809L197.003 694.352L192.665 692.817L188.341 691.202L184.034 689.509L179.745 687.737L175.474 685.887L171.224 683.959L166.997 681.954L162.793 679.872L158.615 677.712L154.463 675.476L150.339 673.165L146.246 670.778L142.183 668.315L138.153 665.779L134.156 663.169L130.196 660.485L126.272 657.728L122.386 654.9L118.54 652L114.735 649.03L110.972 645.99L107.254 642.881L103.58 639.703L99.9525 636.458L96.3729 633.146L92.8423 629.768L89.3619 626.325L85.9331 622.818L82.557 619.249L79.2349 615.617L75.968 611.923L72.7574 608.17L69.6044 604.358L66.51 600.487L63.4754 596.56L60.5018 592.577L57.59 588.538L54.7413 584.447L51.9566 580.303L49.237 576.108L46.5835 571.862L43.9969 567.568L41.4783 563.226L39.0286 558.838L36.6486 554.405L34.3392 549.928L32.1013 545.409L29.9357 540.849L27.8431 536.249L25.8244 531.61L23.8802 526.935L22.0113 522.224L20.2184 517.478L18.502 512.7L16.8629 507.891L15.3016 503.052L13.8187 498.184L12.4147 493.289L11.0902 488.369L9.84562 483.424L8.68141 478.458L7.59801 473.47L6.59582 468.463L5.67523 463.437L4.83652 458.395L4.08002 453.339L3.40604 448.269L2.81479 443.187L2.30647 438.095L1.88131 432.994L1.53944 427.885L1.28099 422.772L1.10606 417.654L1.01471 412.534L1.00693 407.412L1.08282 402.292L1.24226 397.173L1.48525 392.059L1.81168 386.949L2.2214 381.847L2.71431 376.753L3.29021 371.669L3.9489 366.597L4.69014 361.537L5.5136 356.493L6.41907 351.464L7.40615 346.453L8.47454 341.462L9.62379 336.491L10.8535 331.543L12.1632 326.618L13.5525 321.718L15.0209 316.845L16.5677 312L18.1924 307.185L19.8945 302.402L21.6733 297.65L23.5282 292.933L25.4585 288.25L27.4635 283.605L29.5424 278.998L31.6945 274.43L33.9191 269.903L36.2153 265.418L38.5822 260.977L41.0191 256.58L43.525 252.23L46.0991 247.927L48.7403 243.672L51.4477 239.468L54.2204 235.314L57.0573 231.213L59.9575 227.164L62.9198 223.171L65.9431 219.233L69.0265 215.352L72.1687 211.529L75.3687 207.765L78.6253 204.06L81.9373 200.417L85.3034 196.835L88.7226 193.317L92.1935 189.862L95.7149 186.472L99.2856 183.148L102.904 179.89L106.569 176.7L110.28 173.578L114.035 170.525L117.832 167.542L121.67 164.629L125.549 161.787L129.466 159.017L133.42 156.32L137.409 153.696L141.433 151.146L145.49 148.67L149.579 146.269L153.697 143.943L157.843 141.693L162.017 139.52L166.216 137.423L170.439 135.403L174.685 133.461L178.952 131.597L183.238 129.811L187.542 128.103L191.863 126.474L196.198 124.923L200.547 123.452L204.908 122.06L209.279 120.747L213.659 119.514L218.047 118.36L222.44 117.286L226.837 116.291L231.237 115.376L235.638 114.54L240.039 113.783L244.438 113.106L248.833 112.508L253.223 111.988L257.607 111.548L261.983 111.185L266.35 110.901L270.705 110.695L275.048 110.566L279.377 110.514L283.691 110.54L287.988 110.641L292.266 110.819L296.525 111.071L300.762 111.399L304.976 111.801L309.167 112.277L313.332 112.827L317.47 113.449L321.58 114.142L325.66 114.908L329.709 115.743L333.726 116.649L337.709 117.624L341.657 118.667L345.569 119.778L349.444 120.955L353.28 122.198L357.075 123.507L360.83 124.879L364.542 126.315L368.211 127.812L371.834 129.371L375.412 130.991L378.943 132.669L382.426 134.406L385.859 136.2L389.243 138.05L392.575 139.955L395.854 141.913L399.081 143.925L402.253 145.988L405.37 148.101L408.431 150.263L411.434 152.474L414.38 154.731L417.268 157.033L420.095 159.38L422.863 161.77L425.569 164.201L428.214 166.673L430.796 169.183L433.315 171.731L435.77 174.316L438.16 176.935L440.485 179.588L442.745 182.273L444.939 184.989L447.065 187.735L449.125 190.508L451.117 193.308L453.04 196.133L454.896 198.981L456.682 201.852L458.399 204.744L460.047 207.654L461.625 210.583L463.132 213.528L464.57 216.488L465.937 219.461L467.233 222.446L468.458 225.442L469.613 228.446L470.696 231.458L471.709 234.476L472.651 237.498L473.521 240.524L474.321 243.551L475.049 246.577L475.707 249.603L476.295 252.625L476.811 255.643L477.258 258.655L477.634 261.66L477.941 264.656L478.178 267.641L478.346 270.615L478.445 273.576L478.476 276.522L478.439 279.452L478.333 282.364L478.161 285.258L477.922 288.131L477.617 290.983L477.246 293.811L476.81 296.616L476.31 299.394L475.745 302.146L475.118 304.869L474.428 307.562L473.676 310.224L472.863 312.854L471.99 315.45L471.057 318.012L470.066 320.537L469.016 323.026L467.91 325.475L466.747 327.885L465.529 330.254L464.257 332.582L462.931 334.866L461.553 337.106L460.123 339.301L458.643 341.449L457.114 343.55L455.537 345.602L453.912 347.605L452.241 349.558L450.525 351.459L448.765 353.309L446.962 355.104L445.118 356.846L443.234 358.533L441.31 360.164L439.349 361.739L437.35 363.256L435.317 364.716L433.249 366.116L431.148 367.457L429.016 368.737L426.854 369.957L424.662 371.115L422.443 372.211L420.198 373.245L417.928 374.215L415.634 375.122L413.319 375.964L410.982 376.742L408.627 377.454L406.253 378.101L403.863 378.682L401.458 379.197L399.039 379.646L396.608 380.028L394.166 380.342L391.715 380.59L389.257 380.77L386.791 380.882L384.321 380.926L381.848 380.903L379.372 380.812L376.896 380.652L374.421 380.425L371.948 380.13L369.479 379.767L367.015 379.336L364.558 378.837L362.11 378.27L359.671 377.636L357.243 376.935L354.828 376.167L352.427 375.332L350.042 374.431L347.673 373.463L345.323 372.43L342.992 371.331L340.683 370.167L338.396 368.938L336.134 367.645L333.896 366.289L331.686 364.869L329.503 363.387L327.351 361.843L325.228 360.237L323.138 358.57L321.082 356.844L319.06 355.058L317.075 353.213L315.126 351.31L313.217 349.349L311.347 347.333L309.518 345.26L307.731 343.133L305.988 340.952L304.29 338.718L302.637 336.431L301.032 334.093L299.474 331.705L297.966 329.268L296.508 326.783L295.101 324.25L293.747 321.671L292.446 319.046L291.2 316.378L290.009 313.667L288.874 310.914L287.797 308.12L286.777 305.287L285.817 302.416L284.917 299.507L284.078 296.563L283.3 293.583L282.584 290.571L281.932 287.526L281.343 284.451L280.82 281.346L280.361 278.213L279.968 275.053L279.642 271.868L279.383 268.658L279.192 265.426L279.069 262.172L279.015 258.898L279.031 255.606L279.116 252.297L279.271 248.971L279.497 245.632L279.794 242.279L280.162 238.916L280.602 235.542L281.114 232.16L281.698 228.771L282.354 225.376L283.084 221.977L283.886 218.576L284.761 215.174L285.709 211.772L286.73 208.372L287.825 204.976L288.992 201.584L290.234 198.199L291.548 194.822L292.935 191.454L294.395 188.098L295.929 184.754L297.535 181.423L299.214 178.108L300.964 174.81L302.788 171.531L304.682 168.271L306.649 165.033L308.686 161.818L310.795 158.627L312.973 155.461L315.222 152.323L317.541 149.214L319.928 146.135L322.384 143.087L324.908 140.072L327.499 137.092L330.157 134.147L332.881 131.239L335.671 128.37L338.526 125.541L341.445 122.753L344.427 120.007L347.472 117.305L350.579 114.649L353.746 112.038L356.975 109.476L360.262 106.962L363.608 104.498L367.011 102.086L370.471 99.7267L373.987 97.4208L377.557 95.1699L381.181 92.975L384.858 90.8373L388.586 88.7579L392.365 86.7379L396.193 84.7782L400.069 82.88L403.993 81.0443L407.962 79.2721L411.976 77.5643L416.034 75.9218L420.134 74.3457L424.275 72.8367L428.456 71.3959L432.676 70.0239L436.933 68.7217L441.225 67.4901L445.553 66.3298L449.914 65.2415L454.307 64.226L458.73 63.2841L463.183 62.4162L467.663 61.6232L472.17 60.9055L476.702 60.2638L481.257 59.6987L485.834 59.2106L490.432 58.8001L495.05 58.4676L499.685 58.2136L504.336 58.0385L509.002 57.9427L513.681 57.9265L518.372 57.9902L523.073 58.1341L527.783 58.3585L532.5 58.6637L537.222 59.0499L541.949 59.5171L546.678 60.0656L551.408 60.6954L556.138 61.4067L560.865 62.1995L565.589 63.0739L570.308 64.0297L575.02 65.067L579.724 66.1857L584.418 67.3857L589.101 68.6668L593.771 70.029L598.426 71.472L603.065 72.9956L607.687 74.5995L612.29 76.2834L616.873 78.0471L621.433 79.8902L625.97 81.8123L630.481 83.8131L634.967 85.892L639.424 88.0486L643.851 90.2825L648.248 92.5931L652.612 94.9798L656.943 97.4422L661.238 99.9795L665.496 102.591L669.716 105.276L673.897 108.035L678.036 110.865L682.134 113.768L686.188 116.741L690.197 119.783L694.159 122.895L698.074 126.076L701.94 129.323L705.756 132.638L709.521 136.017L713.233 139.462L716.891 142.97L720.494 146.541L724.04 150.173L727.53 153.866L730.96 157.619L734.331 161.429L737.642 165.298L740.89 169.222L744.076 173.202L747.197 177.235L750.254 181.321L753.245 185.458L756.169 189.646L759.025 193.883L761.813 198.167L764.53 202.497L767.178 206.873L769.754 211.293L772.258 215.755L774.689 220.258L777.047 224.801L779.33 229.382L781.538 234L783.67 238.653L785.726 243.341L787.705 248.061L789.606 252.813L791.429 257.594L793.174 262.403L794.839 267.24L796.425 272.101L797.93 276.987L799.355 281.894L800.699 286.823L801.962 291.77L803.143 296.736L804.242 301.717L805.259 306.714L806.194 311.723L807.046 316.744L807.815 321.775L808.501 326.814L809.105 331.861L809.624 336.912L810.061 341.968L810.415 347.025L810.685 352.083L810.873 357.141L810.976 362.195L810.998 367.246L810.936 372.291L810.791 377.329L810.564 382.358L810.254 387.377L809.863 392.385L809.39 397.379L808.835 402.358L808.199 407.32L807.482 412.265L806.685 417.19L805.807 422.095L804.851 426.977L803.815 431.835L802.701 436.668L801.509 441.474L800.239 446.252L798.893 451L797.47 455.717L795.972 460.401L794.399 465.052L792.752 469.667L791.032 474.246L789.239 478.786L787.374 483.287L785.438 487.748L783.432 492.166L781.357 496.542L779.213 500.872L777.001 505.157L774.724 509.395L772.38 513.585L769.972 517.725L767.5 521.814L764.966 525.852L762.37 529.837L759.713 533.768L756.998 537.643L754.224 541.463L751.393 545.225L748.506 548.929L745.564 552.574L742.568 556.159L739.52 559.682L736.422 563.143L733.273 566.542L730.075 569.876L726.831 573.146L723.54 576.35L720.204 579.488L716.826 582.559L713.405 585.561L709.943 588.496L706.442 591.361L702.903 594.156L699.328 596.88L695.718 599.534L692.073 602.115L688.397 604.624L684.69 607.061L680.953 609.424L677.188 611.713L673.397 613.928L669.581 616.069L665.742 618.134L661.88 620.124L657.998 622.039L654.097 623.877L650.179 625.64L646.244 627.326L642.295 628.935L638.333 630.467L634.36 631.923L630.377 633.302L626.385 634.603L622.386 635.827L618.382 636.975L614.374 638.045L610.364 639.038L606.353 639.954L602.343 640.793L598.334 641.555L594.33 642.241L590.331 642.85L586.338 643.383L582.354 643.84L578.38 644.222L574.416 644.528L570.466 644.76L566.529 644.916L562.608 644.999L558.704 645.008L554.818 644.944L550.953 644.806L547.108 644.597L543.287 644.316L539.489 643.964L535.717 643.541L531.972 643.048L528.255 642.486L524.567 641.856L520.911 641.157L517.286 640.392L513.695 639.56L510.139 638.663L506.619 637.701L503.136 636.675L499.692 635.586L496.287 634.435L492.923 633.222L489.601 631.95L486.323 630.618L483.089 629.227L479.9 627.779L476.758 626.275L473.663 624.716L470.617 623.103L467.621 621.436L464.676 619.717L461.782 617.948L458.941 616.128L456.153 614.261L453.42 612.345L450.743 610.384L448.121 608.378L445.557 606.327L443.05 604.235L440.602 602.101L438.214 599.927L435.886 597.715L433.618 595.465L431.412 593.18L429.269 590.859L427.188 588.506L425.17 586.12L423.217 583.704L421.328 581.259L419.504 578.786L417.745 576.286L416.053 573.762L414.427 571.214L412.867 568.644L411.375 566.053L409.951 563.443L408.594 560.815L407.305 558.171L406.085 555.512L404.933 552.84L403.85 550.155L402.835 547.461L401.89 544.757L401.014 542.046L400.207 539.328L399.469 536.607L398.801 533.882L398.202 531.155L397.672 528.429L397.211 525.703L396.819 522.981L396.496 520.263L396.242 517.55L396.056 514.845L395.939 512.149L395.889 509.463L395.907 506.788L395.993 504.126L396.146 501.479L396.365 498.848L396.65 496.234L397.002 493.638L397.419 491.063L397.9 488.509L398.446 485.979L399.056 483.472L399.729 480.991L400.465 478.537L401.263 476.111L402.122 473.715L403.042 471.35L404.022 469.017L405.061 466.717L406.158 464.452L407.314 462.223L408.526 460.031L409.794 457.878L411.117 455.764L412.495 453.691L413.926 451.66L415.41 449.672L416.945 447.728L418.531 445.829L420.166 443.977L421.85 442.172L423.581 440.416L425.359 438.709L427.182 437.052L429.049 435.447L430.96 433.894L432.912 432.395L434.905 430.95L436.938 429.559L439.01 428.225L441.118 426.947L443.263 425.727L445.442 424.565L447.655 423.463L449.9 422.42L452.176 421.437L454.482 420.516L456.816 419.656L459.177 418.859L461.564 418.125L463.975 417.455L466.409 416.848L468.864 416.307L471.34 415.83L473.834 415.419L476.346 415.074L478.874 414.795L481.416 414.583L483.971 414.438L486.538 414.36L489.115 414.35L491.701 414.408L494.294 414.533L496.893 414.728L499.497 414.99L502.103 415.321L504.711 415.721L507.319 416.19L509.926 416.727L512.529 417.333L515.128 418.008L517.721 418.752L520.307 419.564L522.884 420.445L525.451 421.394L528.006 422.411L530.548 423.497L533.075 424.65L535.586 425.87L538.079 427.158L540.554 428.512L543.008 429.933L545.44 431.421L547.849 432.974L550.233 434.592L552.591 436.275L554.921 438.022L557.223 439.834L559.495 441.708L561.735 443.645L563.942 445.644L566.114 447.705L568.251 449.826L570.352 452.008L572.414 454.249L574.436 456.548L576.418 458.905L578.358 461.32L580.254 463.79L582.106 466.316L583.912 468.897L585.672 471.531L587.383 474.217L589.046 476.956L590.658 479.745L592.218 482.584L593.727 485.472L595.181 488.407L596.581 491.389L597.925 494.417L599.213 497.49L600.443 500.605L601.614 503.763L602.726 506.962L603.778 510.201L604.768 513.479L605.695 516.794L606.56 520.145L607.361 523.531L608.097 526.951L608.768 530.403L609.372 533.887L609.91 537.4L610.38 540.942L610.782 544.511L611.115 548.106L611.378 551.725L611.571 555.367L611.694 559.031L611.745 562.715L611.725 566.418L611.633 570.138L611.468 573.874L611.23 577.625L610.918 581.389L610.533 585.164L610.074 588.949L609.54 592.743L608.932 596.544L608.249 600.35L607.491 604.161L606.657 607.974L605.748 611.789L604.764 615.603L603.704 619.415L602.568 623.223L601.357 627.027L600.07 630.824L598.707 634.613L597.268 638.393L595.754 642.162L594.165 645.918L592.501 649.66L590.761 653.387L588.947 657.096L587.057 660.787L585.094 664.458L583.057 668.108L580.946 671.734L578.761 675.336L576.504 678.912L574.174 682.46L571.772 685.979L569.299 689.469L566.754 692.926L564.139 696.35L561.454 699.739L558.7 703.093L555.877 706.408L552.986 709.685L550.027 712.922L547.002 716.117L543.911 719.27L540.754 722.378L537.533 725.44L534.249 728.456L530.901 731.423L527.492 734.341L524.022 737.208L520.492 740.023L516.902 742.786L513.254 745.493L509.549 748.146L505.788 750.741L501.972 753.279L498.101 755.758L494.178 758.177L490.202 760.535L486.176 762.83L482.1 765.063L477.976 767.231L473.804 769.334L469.586 771.37L465.323 773.34L461.017 775.242L456.668 777.074L452.278 778.837L447.848 780.529L443.38 782.15L438.874 783.699L434.333 785.174L429.757 786.576L425.148 787.903L420.507 789.155L415.836 790.332L411.136 791.431L406.408 792.454L401.654 793.399L396.876 794.266L392.075 795.055L387.252 795.764L382.409 796.393L377.547 796.943L372.668 797.412L367.773 797.8L362.864 798.107L357.942 798.332L353.009 798.476L348.067 798.537L343.116 798.517L338.159 798.413L333.197 798.228L328.232 797.959L323.264 797.608L318.297 797.173L313.33 796.656L308.366 796.056L303.407 795.373L298.454 794.607L293.508 793.758L288.571 792.826L283.644 791.812L278.73 790.715L273.829 789.537L268.944 788.276L264.075 786.933L259.224 785.51L254.394 784.005L249.584 782.419L244.798 780.753L240.035 779.007L235.299 777.182L230.589 775.278L225.909 773.295L221.259 771.234L216.64 769.096L212.054 766.881L207.504 764.59L202.989 762.223L198.511 759.782L194.072 757.266L189.674 754.676L185.317 752.015L181.003 749.281L176.733 746.476L172.509 743.6L168.331 740.656L164.202 737.642L160.122 734.562L156.093 731.414L152.115 728.201L148.191 724.923L144.321 721.581L140.507 718.177L136.749 714.71L133.049 711.184L129.408 707.597L125.827 703.953L122.307 700.251L118.849 696.493L115.454 692.68L112.123 688.814L108.858 684.895L105.658 680.925L102.525 676.905L99.4606 672.836L96.4646 668.72L93.5383 664.558L90.6823 660.351L87.8976 656.1L85.1849 651.808L82.545 647.475L79.9785 643.102L77.4862 638.692L75.0688 634.245L72.7269 629.763L70.461 625.248L68.2718 620.7L66.1598 616.121L64.1255 611.514L62.1695 606.878L60.2922 602.216L58.4941 597.53L56.7755 592.82L55.1368 588.089L53.5784 583.337L52.1006 578.566L50.7037 573.778L49.3879 568.975L48.1535 564.158L47.0006 559.328L45.9295 554.486L44.9402 549.636L44.033 544.778L43.2077 539.913L42.4646 535.043L41.8036 530.171L41.2247 525.296L40.7278 520.422L40.3129 515.548L39.9799 510.678L39.7286 505.813L39.5589 500.953L39.4705 496.101L39.4633 491.258L39.5369 486.426L39.6911 481.606L39.9256 476.8L40.2401 472.009L40.6341 467.235L41.1072 462.479L41.659 457.742L42.2891 453.027L42.9969 448.335L43.782 443.667L44.6437 439.024L45.5816 434.408L46.5949 429.821L47.6831 425.263L48.8455 420.737L50.0814 416.243L51.3901 411.784L52.7708 407.359L54.2229 402.972L55.7454 398.622L57.3376 394.312L58.9986 390.042L60.7276 385.814L62.5236 381.629L64.3859 377.488L66.3133 373.393L68.3049 369.345L70.3598 365.345L72.4769 361.394L74.6552 357.493L76.8937 353.643L79.1913 349.846L81.5468 346.102L83.9592 342.413L86.4273 338.779L88.95 335.202L91.5261 331.683L94.1543 328.222L96.8335 324.82L99.5625 321.479L102.34 318.199L105.165 314.981L108.035 311.826L110.951 308.734L113.909 305.707L116.91 302.746L119.951 299.85L123.032 297.021L126.15 294.259L129.305 291.565L132.496 288.94L135.72 286.384L138.976 283.897L142.264 281.481L145.581 279.135L148.926 276.861L152.297 274.658L155.694 272.528L159.115 270.469L162.557 268.484L166.021 266.571L169.503 264.733L173.004 262.967L176.52 261.276L180.052 259.658L183.597 258.115L187.153 256.646L190.72 255.252L194.296 253.933L197.878 252.688L201.467 251.517L205.06 250.422L208.655 249.401L212.252 248.454L215.849 247.582L219.444 246.784L223.035 246.061L226.622 245.411L230.203 244.835L233.776 244.332L237.339 243.903L240.892 243.547L244.433 243.263L247.961 243.051L251.473 242.911L254.969 242.843L258.447 242.845L261.906 242.918L265.345 243.061L268.761 243.273L272.153 243.554L275.521 243.903L278.863 244.32L282.177 244.804L285.462 245.353L288.718 245.969L291.941 246.649L295.132 247.394L298.289 248.201L301.411 249.071L304.496 250.003L307.543 250.996L310.552 252.048L313.52 253.16L316.447 254.329L319.332 255.556L322.173 256.839L324.97 258.177L327.721 259.569L330.425 261.014L333.081 262.512L335.689 264.06L338.246 265.658L340.753 267.305L343.208 269L345.61 270.741L347.959 272.527L350.254 274.357L352.493 276.231L354.676 278.146L356.802 280.101L358.87 282.095L360.88 284.128L362.83 286.197L364.721 288.301L366.551 290.439L368.32 292.61L370.028 294.812L371.673 297.044L373.254 299.304L374.773 301.592L376.227 303.905L377.617 306.243L378.942 308.604L380.202 310.987L381.395 313.389L382.523 315.811L383.585 318.249L384.579 320.704L385.507 323.173L386.367 325.655L387.16 328.148L387.886 330.652L388.543 333.163L389.133 335.682L389.654 338.207L390.108 340.736L390.493 343.268L390.81 345.8L391.06 348.333L391.241 350.863L391.354 353.391L391.399 355.914L391.377 358.431L391.287 360.94L391.13 363.44L390.906 365.929L390.615 368.407L390.257 370.871L389.834 373.321L389.344 375.754L388.789 378.169L388.169 380.566L387.484 382.942L386.735 385.296L385.923 387.627L385.047 389.933L384.109 392.213L383.109 394.466L382.047 396.69L380.925 398.885L379.743 401.048L378.501 403.178L377.2 405.274L375.842 407.335L374.426 409.36L372.954 411.347L371.426 413.296L369.844 415.204L368.208 417.071L366.519 418.895L364.777 420.676L362.985 422.412L361.142 424.102L359.25 425.746L357.31 427.341L355.323 428.888L353.29 430.384L351.211 431.829L349.089 433.222L346.924 434.562L344.717 435.848L342.469 437.08L340.182 438.255L337.857 439.374L335.495 440.435L333.097 441.438L330.664 442.382L328.198 443.265L325.7 444.089L323.171 444.85L320.613 445.55L318.027 446.187L315.414 446.761L312.775 447.27L310.112 447.716L307.426 448.096L304.719 448.41L301.992 448.658L299.246 448.839L296.483 448.954L293.704 449.001L290.911 448.98L288.105 448.891L285.287 448.733L282.459 448.506L279.622 448.21L276.779 447.845L273.929 447.41L271.076 446.905L268.219 446.331L265.361 445.686L262.504 444.971L259.648 444.186L256.795 443.331L253.947 442.406L251.105 441.41L248.27 440.344L245.444 439.208L242.629 438.002L239.826 436.726L237.037 435.381L234.262 433.966L231.504 432.482L228.763 430.929L226.042 429.308L223.342 427.618L220.664 425.86L218.009 424.035L215.379 422.142L212.776 420.183L210.201 418.158L207.655 416.067L205.14 413.911L202.657 411.69L200.208 409.405L197.793 407.057L195.414 404.645L193.073 402.172L190.77 399.638L188.508 397.042L186.287 394.387L184.109 391.673L181.974 388.9L179.885 386.07L177.842 383.183L175.847 380.24L173.901 377.243L172.004 374.191L170.159 371.087L168.366 367.93L166.627 364.722L164.942 361.465L163.313 358.158L161.74 354.804L160.225 351.402L158.769 347.955L157.372 344.464L156.036 340.929L154.762 337.352L153.55 333.733L152.402 330.075L151.318 326.378L150.3 322.644L149.347 318.874L148.461 315.069L147.643 311.23L146.893 307.359L146.213 303.457L145.602 299.526L145.062 295.567L144.592 291.58L144.195 287.568L143.87 283.532L143.617 279.474L143.439 275.394L143.334 271.295L143.304 267.177L143.348 263.042L143.468 258.892L143.664 254.728L143.935 250.551L144.283 246.363L144.708 242.166L145.21 237.961L145.789 233.749L146.445 229.533L147.18 225.312L147.992 221.09L148.882 216.868L149.85 212.646L150.896 208.428L152.02 204.213L153.223 200.004L154.503 195.803L155.862 191.61L157.299 187.427L158.813 183.256L160.405 179.099L162.075 174.956L163.822 170.83L165.647 166.722L167.548 162.633L169.526 158.565L171.58 154.519L173.71 150.498L175.915 146.502L178.195 142.532L180.551 138.591L182.98 134.68L185.483 130.801L188.059 126.954L190.708 123.141L193.428 119.364L196.22 115.624L199.083 111.922L202.016 108.261L205.018 104.64L208.089 101.062L211.228 97.5279L214.433 94.039L217.706 90.5968L221.043 87.2024L224.445 83.8572L227.911 80.5625L231.44 77.3195L235.031 74.1293L238.682 70.9934L242.394 67.9128L246.164 64.8887L249.992 61.9223L253.877 59.0148L257.818 56.1671L261.814 53.3806L265.863 50.6562L269.965 47.9949L274.118 45.3979L278.321 42.8661L282.573 40.4004L286.872 38.002L291.218 35.6717L295.609 33.4104L300.044 31.219L304.522 29.0984L309.041 27.0494L313.6 25.0728L318.198 23.1695L322.833 21.3401L327.503 19.5855L332.209 17.9062L336.947 16.3031L341.717 14.7767L346.518 13.3277L351.347 11.9567L356.203 10.6642L361.086 9.45083L365.993 8.31705L370.923 7.26334L375.874 6.29014L380.846 5.39792L385.836 4.58702L390.843 3.85784L395.865 3.21074L400.901 2.64597L405.95 2.16381L411.009 1.76455L416.078 1.44836L421.155 1.21543L426.237 1.06596L431.325 1L436.415 1.0177L441.507 1.11911L446.599 1.30423L451.689 1.57313L456.776 1.92568L461.859 2.36191L466.935 2.88168L472.003 3.48489L477.062 4.17136L482.11 4.94095L487.145 5.79341L492.167 6.72851L497.172 7.74597L502.161 8.84549L507.131 10.0268L512.081 11.2894L517.01 12.633L521.915 14.0571L526.795 15.5614L531.65 17.1452L536.477 18.8082L541.274 20.5498L546.042 22.3693L550.777 24.2662L555.479 26.24L560.146 28.2898L564.776 30.4151L569.369 32.6151L573.924 34.8891L578.437 37.2364L582.909 39.6561L587.338 42.1475L591.723 44.7096L596.062 47.3417L600.354 50.0429L604.598 52.8121L608.793 55.6486L612.936 58.5513L617.028 61.5192L621.067 64.5513L625.052 67.6466L628.981 70.804L632.854 74.0225L636.669 77.301L640.425 80.6382L644.122 84.0332L647.758 87.4847L651.332 90.9915L654.843 94.5524L658.291 98.1663L661.674 101.832L664.991 105.548L668.242 109.313L671.425 113.126L674.54 116.985L677.586 120.89L680.562 124.838L683.468 128.829L686.302 132.861L689.065 136.933L691.754 141.044L694.371 145.191L696.913 149.374L699.38 153.59L701.773 157.84L704.09 162.12L706.33 166.431L708.494 170.769L710.581 175.135L712.59 179.525L714.521 183.94L716.374 188.376L718.148 192.834L719.843 197.31L721.459 201.804L722.996 206.315L724.452 210.84L725.829 215.378L727.126 219.928L728.343 224.488L729.479 229.056L730.535 233.631L731.511 238.211L732.406 242.796L733.221 247.382L733.956 251.97L734.61 256.556L735.185 261.14L735.679 265.721L736.094 270.296L736.429 274.864L736.685 279.423L736.863 283.973L736.961 288.511L736.981 293.036L736.922 297.547L736.786 302.042L736.573 306.519L736.284 310.977L735.917 315.415L735.475 319.832L734.958 324.224L734.366 328.593L733.7 332.935L732.961 337.249L732.148 341.535L731.263 345.79L730.307 350.014L729.281 354.205L728.184 358.361L727.017 362.482L725.783 366.566L724.48 370.612L723.111 374.618L721.676 378.584L720.176 382.507L718.612 386.387L716.985 390.223L715.296 394.014L713.545 397.757L711.735 401.453L709.865 405.1L707.937 408.697L705.952 412.243L703.912 415.736L701.816 419.177L699.667 422.563L697.466 425.895L695.213 429.17L692.91 432.388L690.559 435.548L688.159 438.649L685.714 441.691L683.223 444.672L680.688 447.592L678.111 450.45L675.493 453.245L672.834 455.977L670.137 458.644L667.403 461.246L664.633 463.783L661.829 466.254L658.991 468.658L656.122 470.995L653.222 473.264L650.294 475.464L647.338 477.596L644.356 479.659L641.35 481.652L638.32 483.575L635.269 485.427L632.197 487.209L629.107 488.92L626 490.56L622.877 492.128L619.739 493.624L616.589 495.049L613.427 496.401L610.256 497.682L607.076 498.89L603.889 500.026L600.697 501.09L597.501 502.081L594.303 503L591.104 503.847L587.905 504.622L584.709 505.325L581.516 505.957L578.328 506.516L575.146 507.005L571.973 507.422L568.809 507.768L565.656 508.044L562.515 508.249L559.388 508.385L556.276 508.451L553.181 508.448L550.104 508.377L547.046 508.237L544.009 508.03L540.994 507.756L538.003 507.415L535.037 507.009L532.097 506.537L529.185 506.001L526.301 505.4L523.448 504.736L520.627 504.01L517.838 503.222L515.083 502.373L512.364 501.464L509.681 500.495L507.036 499.468L504.43 498.383L501.864 497.242L499.339 496.044L496.856 494.792L494.417 493.486L492.023 492.127L489.674 490.716L487.372 489.254L485.118 487.742L482.912 486.182L480.757 484.574L478.651 482.919L476.598 481.219L474.597 479.475L472.649 477.688L470.756 475.858L468.918 473.989L467.136 472.079L465.411 470.132L463.743 468.147L462.133 466.127L460.583 464.072L459.092 461.985L457.661 459.865L456.292 457.715L454.984 455.537L453.738 453.33L452.555 451.097L451.435 448.838L450.379 446.556L449.387 444.252L448.459 441.927L447.597 439.583L446.8 437.221L446.069 434.842L445.404 432.448L444.806 430.04L444.274 427.62L443.809 425.189L443.411 422.748L443.08 420.3L442.817 417.845L442.622 415.386L442.494 412.923L442.434 410.458L442.441 407.992L442.517 405.527L442.659 403.065L442.87 400.606L443.148 398.153L443.494 395.706L443.906 393.268L444.386 390.839L444.933 388.421L445.546 386.017L446.226 383.626L446.971 381.25L447.783 378.892L448.66 376.551L449.601 374.231L450.608 371.932L451.678 369.655L452.812 367.402L454.009 365.175L455.269 362.974L456.59 360.801L457.974 358.658L459.418 356.546L460.922 354.465L462.485 352.418L464.108 350.406L465.789 348.43L467.527 346.49L469.321 344.59L471.172 342.729L473.077 340.909L475.037 339.131L477.049 337.396L479.114 335.706L481.231 334.062L483.398 332.464L485.614 330.915L487.879 329.414L490.192 327.963L492.551 326.564L494.955 325.216L497.404 323.922L499.896 322.682L502.43 321.497L505.005 320.368L507.62 319.296L510.274 318.281L512.965 317.326L515.692 316.43L518.454 315.594L521.251 314.82L524.079 314.108L526.939 313.458L529.829 312.872L532.747 312.35L535.693 311.892L538.665 311.5L541.662 311.174L544.681 310.915L547.723 310.723L550.785 310.598L553.866 310.542L556.965 310.555L560.081 310.636L563.211 310.787L566.355 311.008L569.51 311.3L572.677 311.662L575.852 312.095L579.035 312.599L582.224 313.174L585.418 313.821L588.615 314.54L591.814 315.331L595.013 316.194L598.211 317.13L601.406 318.137L604.597 319.217L607.783 320.369L610.961 321.593L614.13 322.89L617.289 324.258L620.437 325.699L623.571 327.211L626.691 328.795L629.795 330.451L632.881 332.177L635.948 333.975L638.995 335.843L642.019 337.782L645.02 339.79L647.997 341.868L650.947 344.015L653.869 346.231L656.762 348.515L659.624 350.867L662.454 353.286L665.251 355.771L668.013 358.323L670.739 360.94L673.428 363.621L676.077 366.367L678.687 369.176L681.255 372.048L683.78 374.981L686.26 377.976L688.696 381.031L691.085 384.146L693.426 387.319L695.718 390.55L697.959 393.837L700.149 397.181L702.286 400.579L704.369 404.032L706.398 407.537L708.37 411.094L710.285 414.702L712.142 418.36L713.939 422.067L715.676 425.821L717.352 429.622L718.965 433.467L720.515 437.357L722 441.29L723.421 445.265L724.775 449.28L726.063 453.334L727.282 457.426L728.433 461.555L729.515 465.72L730.526 469.918L731.466 474.149L732.335 478.411L733.131 482.703L733.854 487.024L734.504 491.372L735.08 495.746L735.58 500.144L736.005 504.565L736.355 509.008L736.627 513.47L736.823 517.952L736.942 522.45L736.983 526.964L736.946 531.492L736.83 536.033L736.636 540.585L736.362 545.147L736.009 549.716L735.577 554.293L735.064 558.874L734.472 563.459L733.8 568.046L733.047 572.633L732.214 577.219L731.301 581.803L730.308 586.382L729.234 590.956L728.079 595.523L726.845 600.08L725.53 604.628L724.136 609.163L722.661 613.685L721.107 618.192L719.474 622.682L717.761 627.155L715.969 631.608L714.099 636.039L712.151 640.449L710.124 644.834L708.02 649.193L705.839 653.526L703.582 657.83L701.248 662.103L698.839 666.346L696.355 670.555L693.796 674.73L691.163 678.869L688.458 682.971L685.679 687.034L682.829 691.057L679.908 695.039L676.916 698.978L673.854 702.873L670.724 706.722L667.526 710.524L664.26 714.279L660.928 717.983L657.531 721.638L654.069 725.24L650.544 728.789L646.956 732.283L643.306 735.722L639.596 739.105L635.827 742.429L631.999 745.694L628.113 748.899L624.172 752.043L620.175 755.124L616.124 758.142L612.021 761.096L607.866 763.984L603.66 766.806L599.405 769.56L595.103 772.246L590.754 774.862L586.359 777.409L581.92 779.884L577.439 782.288L572.916 784.619L568.353 786.877L563.751 789.06L559.112 791.169L554.437 793.202L549.728 795.159L544.986 797.038L540.212 798.841L535.407 800.565L530.574 802.21L525.714 803.776L520.828 805.263L515.917 806.669L510.984 807.995L506.029 809.239L501.055 810.403L496.062 811.484L491.053 812.483L486.028 813.4L480.99 814.234L475.939 814.985L470.878 815.653L465.808 816.238L460.731 816.739L455.647 817.157L450.559 817.491L445.468 817.741L440.376 817.908L435.285 817.99L430.195 817.99L425.108 817.905L420.027 817.737L414.952 817.486L409.885 817.151L404.828 816.733L399.782 816.233L394.749 815.65L389.73 814.984L384.726 814.237L379.74 813.408L374.773 812.498L369.826 811.507L364.901 810.435L360 809.284L355.123 808.053L350.272 806.743L345.449 805.354L340.655 803.888L335.892 802.344L331.161 800.724L326.463 799.028L321.8 797.257L317.174 795.411L312.584 793.492L308.034 791.499L303.524 789.434L299.056 787.297L294.63 785.09L290.249 782.814L285.913 780.468L281.624 778.055L277.383 775.574L273.191 773.028L269.05 770.417L264.96 767.741L260.922 765.003L256.939 762.203L253.01 759.342L249.137 756.421L245.322 753.442L241.564 750.405L237.866 747.312L234.228 744.164L230.651 740.962L227.136 737.707L223.684 734.401L220.296 731.045L216.973 727.64L213.716 724.187L210.525 720.688L207.401 717.144L204.346 713.557L201.359 709.927L198.441 706.256L195.594 702.546L192.818 698.797L190.113 695.012L187.481 691.192L184.921 687.337L182.434 683.451L180.021 679.533L177.683 675.586L175.419 671.61L173.23 667.608L171.117 663.581L169.08 659.531L167.119 655.458L165.235 651.365L163.428 647.252L161.698 643.122L160.045 638.976L158.47 634.816L156.973 630.642L155.553 626.457L154.212 622.262L152.949 618.059L151.764 613.848L150.657 609.633L149.628 605.413L148.677 601.191L147.805 596.969L147.01 592.747L146.293 588.528L145.654 584.312L145.092 580.102L144.607 575.898L144.199 571.703L143.868 567.518L143.614 563.344L143.435 559.182L143.332 555.035L143.304 550.904L143.351 546.79L143.472 542.695L143.667 538.62L143.936 534.566L144.277 530.536L144.69 526.529L145.175 522.549L145.732 518.595L146.358 514.671L147.054 510.775L147.819 506.912L148.652 503.08L149.553 499.283L150.52 495.52L151.553 491.794L152.652 488.106L153.814 484.457L155.04 480.847L156.328 477.279L157.677 473.754L159.087 470.272L160.556 466.835L162.084 463.444L163.67 460.1L165.311 456.804L167.008 453.558L168.76 450.361L170.564 447.216L172.421 444.123L174.329 441.084L176.286 438.098L178.292 435.168L180.345 432.294L182.444 429.476L184.588 426.716L186.776 424.015L189.007 421.373L191.278 418.791L193.589 416.27L195.939 413.811L198.326 411.413L200.748 409.079L203.206 406.808L205.696 404.602L208.218 402.46L210.771 400.384L213.352 398.373L215.961 396.429L218.596 394.551L221.256 392.741L223.939 390.998L226.645 389.323L229.37 387.717L232.115 386.179L234.877 384.711L237.655 383.311L240.448 381.981L243.253 380.721L246.071 379.531L248.899 378.41L251.735 377.36L254.579 376.38L257.428 375.47L260.282 374.63L263.138 373.861L265.996 373.162L268.854 372.532L271.71 371.973L274.562 371.484L277.411 371.065L280.253 370.715L283.088 370.435L285.913 370.223L288.729 370.081L291.532 370.007L294.322 370.001L297.098 370.063L299.857 370.192L302.599 370.388L305.322 370.651L308.024 370.98L310.705 371.375L313.363 371.834L315.996 372.358L318.603 372.946L321.184 373.597L323.736 374.31L326.258 375.086L328.749 375.923L331.207 376.82L333.632 377.777L336.022 378.793L338.377 379.867L340.693 380.998L342.972 382.186L345.21 383.429L347.408 384.727L349.564 386.079L351.677 387.484L353.745 388.941L355.768 390.448L357.745 392.006L359.674 393.612L361.555 395.266L363.387 396.966L365.168 398.712L366.898 400.503L368.576 402.337L370.2 404.213L371.77 406.13L373.286 408.088L374.745 410.083L376.148 412.116L377.494 414.185L378.782 416.289L380.01 418.427L381.179 420.597L382.288 422.798L383.336 425.029L384.323 427.288L385.247 429.574L386.109 431.886L386.907 434.222L387.642 436.581L388.312 438.961L388.918 441.362L389.458 443.782L389.933 446.219L390.342 448.672L390.685 451.139L390.961 453.619L391.171 456.111L391.313 458.614L391.388 461.125L391.395 463.643L391.335 466.167L391.206 468.695L391.01 471.226L390.746 473.759L390.414 476.292L390.013 478.823L389.544 481.351L389.008 483.874L388.403 486.392L387.73 488.902L386.99 491.403L386.182 493.894L385.307 496.373L384.364 498.839L383.355 501.29L382.279 503.725L381.136 506.143L379.928 508.541L378.653 510.919L377.314 513.275L375.91 515.607L374.441 517.915L372.909 520.197L371.313 522.451L369.654 524.677L367.933 526.872L366.15 529.036L364.307 531.166L362.402 533.263L360.439 535.324L358.416 537.348L356.335 539.334L354.196 541.28L352 543.186L349.749 545.05L347.442 546.87L345.082 548.647L342.667 550.378L340.201 552.062L337.683 553.698L335.114 555.285L332.496 556.822L329.829 558.308L327.114 559.742L324.353 561.122L321.546 562.448L318.695 563.718L315.801 564.932L312.865 566.089L309.887 567.188L306.87 568.227L303.814 569.206L300.721 570.124L297.591 570.981L294.427 571.774L291.228 572.504L287.997 573.17L284.735 573.771L281.444 574.307L278.123 574.775L274.776 575.177L271.402 575.511L268.004 575.777L264.583 575.974L261.14 576.101L257.677 576.158L254.194 576.145L250.695 576.061L247.179 575.905L243.648 575.677L240.104 575.377L236.549 575.005L232.983 574.559L229.408 574.04L225.826 573.448L222.238 572.782L218.646 572.042L215.05 571.228L211.454 570.339L207.857 569.376L204.262 568.338L200.67 567.226L197.082 566.039L193.501 564.778L189.927 563.442L186.363 562.031L182.808 560.546L179.267 558.986L175.738 557.352L172.225 555.644L168.728 553.862L165.25 552.007L161.791 550.079L158.353 548.077L154.938 546.002L151.546 543.856L148.181 541.637L144.842 539.347L141.531 536.986L138.251 534.554L135.001 532.052L131.784 529.48L128.602 526.84L125.455 524.131L122.344 521.354L119.272 518.51L116.24 515.599L113.249 512.623L110.299 509.582L107.394 506.476L104.533 503.307L101.719 500.075L98.9523 496.782L96.2343 493.427L93.5663 490.012L90.9495 486.538L88.3852 483.005L85.8746 479.416L83.4187 475.77L81.0189 472.068L78.6761 468.313L76.3916 464.504L74.1664 460.642L72.0015 456.73L69.8981 452.768L67.8572 448.757L65.8797 444.698L63.9667 440.593L62.1191 436.443L60.3379 432.248L58.6239 428.011L56.9781 423.732L55.4013 419.413L53.8943 415.054L52.4581 410.658L51.0932 406.226L49.8006 401.759L48.581 397.258L47.435 392.724L46.3634 388.16L45.3668 383.566L44.4458 378.944L43.601 374.296L42.8331 369.622L42.1425 364.925L41.5297 360.205L40.9953 355.464L40.5397 350.704L40.1634 345.925L39.8667 341.131L39.65 336.322L39.5136 331.499L39.4579 326.664L39.4831 321.819L39.5895 316.965L39.7773 312.104L40.0468 307.238L40.398 302.367L40.8311 297.493L41.3461 292.618L41.9433 287.744L42.6225 282.872L43.3839 278.003L44.2273 273.14L45.1528 268.283L46.1603 263.435L47.2495 258.596L48.4205 253.769L49.673 248.954L51.0068 244.154L52.4217 239.37L53.9175 234.604L55.4937 229.856L57.1502 225.129L58.8865 220.424L60.7023 215.743L62.5971 211.087L64.5705 206.458L66.622 201.856L68.7512 197.285L70.9575 192.744L73.2403 188.236L75.5991 183.761L78.0332 179.322L80.542 174.92L83.1248 170.556L85.781 166.232L88.5097 161.949L91.3103 157.708L94.182 153.511L97.1239 149.359L100.135 145.253L103.215 141.195L106.363 137.186L109.577 133.227L112.857 129.32L116.202 125.465L119.611 121.664L123.083 117.919L126.617 114.23L130.211 110.598L133.866 107.025L137.579 103.512L141.349 100.059L145.176 96.6685L149.058 93.3408L152.994 90.077L156.983 86.8783L161.024 83.7455L165.114 80.6795L169.255 77.6815L173.443 74.7521L177.677 71.8924L181.957 69.1031L186.281 66.3851L190.647 63.7392L195.055 61.1662L199.502 58.6668L203.988 56.2417L208.511 53.8917L213.07 51.6174L217.663 49.4194L222.288 47.2984L226.945 45.2549L231.632 43.2895L236.348 41.4027L241.09 39.595L245.858 37.8668L250.65 36.2187L255.465 34.6511L260.3 33.1642L265.155 31.7584L270.027 30.4341L274.916 29.1916L279.82 28.031L284.737 26.9527L289.666 25.9568L294.605 25.0436L299.553 24.213L304.508 23.4653L309.468 22.8006L314.433 22.2187L319.4 21.7199L324.367 21.304L329.334 20.9711L334.299 20.7209L339.26 20.5535L344.216 20.4687L349.165 20.4662L354.105 20.546L359.036 20.7078L363.955 20.9514L368.861 21.2763L373.752 21.6824L378.628 22.1692L383.486 22.7364L388.325 23.3837L393.143 24.1104L397.939 24.9162L402.712 25.8006L407.46 26.7631L412.182 27.803L416.875 28.9199L421.54 30.1131L426.174 31.382L430.776 32.7258L435.344 34.144L439.878 35.6358L444.375 37.2004L448.835 38.8371L453.256 40.5451L457.637 42.3236L461.977 44.1716L466.274 46.0884L470.527 48.073L474.734 50.1245L478.896 52.242L483.01 54.4245L487.075 56.671L491.09 58.9804L495.054 61.3518L498.965 63.7841L502.824 66.2762L506.628 68.8269L510.377 71.4352L514.069 74.1L517.704 76.82L521.281 79.5941L524.798 82.421L528.254 85.2996L531.65 88.2286L534.983 91.2068L538.254 94.2329L541.461 97.3055L544.603 100.423L547.679 103.585L550.69 106.79L553.634 110.036L556.51 113.321L559.318 116.646L562.057 120.007L564.726 123.404L567.325 126.836L569.854 130.3L572.312 133.796L574.698 137.322L577.011 140.877L579.253 144.459L581.421 148.066L583.515 151.698L585.536 155.352L587.483 159.027L589.356 162.723L591.154 166.436L592.877 170.166L594.525 173.912L596.097 177.671L597.594 181.442L599.016 185.224L600.362 189.015L601.632 192.814L602.827 196.619L603.946 200.428L604.989 204.241L605.957 208.055L606.849 211.87L607.666 215.682L608.407 219.492L609.074 223.298L609.665 227.097L610.182 230.889L610.625 234.672L610.994 238.445L611.289 242.206L611.511 245.953L611.66 249.686L611.736 253.403L611.74 257.101L611.673 260.781L611.535 264.44L611.326 268.077L611.047 271.691L610.699 275.28L610.282 278.843L609.797 282.379L609.244 285.886L608.625 289.363L607.939 292.808L607.189 296.221L606.374 299.599L605.495 302.943L604.553 306.249L603.549 309.519L602.485 312.749L601.359 315.939L600.175 319.087L598.932 322.193L597.632 325.256L596.275 328.274L594.863 331.245L593.396 334.171L591.876 337.048L590.304 339.876L588.681 342.654L587.008 345.381L585.285 348.056L583.515 350.678L581.699 353.246L579.837 355.76L577.931 358.218L575.981 360.62L573.991 362.964L571.959 365.251L569.889 367.479L567.78 369.647L565.635 371.755L563.455 373.802L561.24 375.787L558.993 377.711L556.715 379.571L554.406 381.368L552.07 383.101L549.706 384.77L547.316 386.374L544.902 387.912L542.465 389.385L540.006 390.791L537.527 392.131L535.03 393.404L532.515 394.609L529.985 395.747L527.44 396.817L524.882 397.82L522.313 398.753L519.734 399.619L517.146 400.416L514.552 401.144L511.951 401.804L509.347 402.395L506.74 402.917L504.132 403.37L501.524 403.755L498.919 404.071L496.316 404.318L493.718 404.497L491.126 404.608L488.542 404.651L485.967 404.626L483.403 404.533L480.85 404.373L478.311 404.146L475.787 403.852L473.279 403.493L470.788 403.067L468.317 402.576L465.866 402.019L463.437 401.399L461.032 400.714L458.651 399.966L456.296 399.155L453.968 398.282L451.668 397.347L449.399 396.351L447.161 395.294L444.955 394.179L442.784 393.004L440.647 391.771L438.546 390.481L436.484 389.134L434.459 387.731L432.475 386.274L430.532 384.762L428.631 383.198L426.773 381.581L424.96 379.913L423.193 378.195L421.472 376.428L419.799 374.612L418.174 372.75L416.6 370.841L415.076 368.887L413.604 366.89L412.185 364.849L410.819 362.767L409.508 360.644L408.252 358.482L407.052 356.282L405.91 354.045L404.825 351.772L403.799 349.465L402.832 347.125L401.926 344.752L401.08 342.35L400.296 339.917L399.574 337.457L398.915 334.971L398.32 332.458L397.788 329.922L397.32 327.364L396.918 324.784L396.581 322.184L396.31 319.566L396.106 316.931L395.968 314.281L395.898 311.616L395.894 308.939L395.959 306.25L396.092 303.552L396.293 300.845L396.562 298.131L396.9 295.412L397.308 292.689L397.784 289.963L398.329 287.236L398.944 284.51L399.627 281.786L400.38 279.065L401.203 276.349L402.094 273.639L403.054 270.937L404.084 268.244L405.182 265.563L406.35 262.893L407.585 260.237L408.889 257.597L410.261 254.973L411.701 252.367L413.208 249.781L414.782 247.215L416.423 244.673L418.13 242.154L419.903 239.66L421.742 237.193L423.645 234.754L425.613 232.344L427.644 229.966L429.739 227.619L431.897 225.307L434.116 223.029L436.397 220.787L438.739 218.584L441.141 216.419L443.602 214.294L446.121 212.211L448.698 210.17L451.332 208.174L454.022 206.222L456.768 204.317L459.567 202.46L462.42 200.652L465.325 198.894L468.282 197.186L471.289 195.531L474.346 193.93L477.451 192.383L480.604 190.891L483.803 189.456L487.047 188.079L490.335 186.76L493.666 185.5L497.039 184.301L500.453 183.164L503.906 182.089L507.397 181.077L510.926 180.129L514.49 179.246L518.088 178.429L521.72 177.679L525.383 176.995L529.078 176.38L532.801 175.833L536.552 175.356L540.33 174.949L544.133 174.613L547.96 174.347L551.809 174.154L555.679 174.033L559.569 173.985L563.477 174.01L567.402 174.109L571.342 174.282L575.295 174.53L579.261 174.853L583.238 175.252L587.224 175.726L591.218 176.276L595.219 176.902L599.224 177.605L603.233 178.384L607.244 179.24L611.255 180.173L615.264 181.183L619.272 182.27L623.274 183.435L627.272 184.676L631.262 185.995L635.243 187.39L639.214 188.863L643.173 190.413L647.119 192.039L651.05 193.742L654.965 195.521L658.862 197.377L662.74 199.308L666.596 201.315L670.431 203.397L674.241 205.554L678.027 207.786L681.785 210.091L685.515 212.471L689.216 214.923L692.885 217.449L696.522 220.046L700.125 222.716L703.692 225.456L707.223 228.266L710.715 231.147L714.168 234.096L717.579 237.114L720.949 240.2L724.274 243.353L727.555 246.571L730.789 249.856L733.976 253.204L737.114 256.617L740.202 260.092L743.238 263.629L746.222 267.227L749.151 270.885L752.026 274.602L754.845 278.377L757.606 282.209L760.308 286.097L762.951 290.04L765.534 294.037L768.054 298.086L770.512 302.187L772.906 306.338L775.235 310.539L777.498 314.787L779.695 319.082L781.823 323.423L783.884 327.808L785.874 332.236L787.794 336.706L789.643 341.216L791.42 345.765L793.124 350.351L794.755 354.975L796.311 359.633L797.793 364.325L799.198 369.049L800.528 373.804L801.78 378.588L802.955 383.4L804.052 388.238L805.07 393.102L806.009 397.989L806.869 402.898L807.648 407.828L808.347 412.777L808.965 417.743L809.502 422.726L809.957 427.723L810.33 432.733L810.621 437.754L810.83 442.786L810.957 447.825L811 452.872L810.961 457.924L810.838 462.979L810.632 468.037L810.344 473.095L809.971 478.152L809.516 483.207L808.978 488.257L808.356 493.302L807.651 498.34L806.864 503.369L805.994 508.387L805.041 513.394L804.005 518.387L802.888 523.365L801.689 528.327L800.408 533.27L799.046 538.194L797.603 543.097L796.08 547.977L794.476 552.833L792.793 557.664L791.031 562.467L789.191 567.242L787.272 571.987L785.276 576.7L783.203 581.38L781.054 586.026L778.829 590.636L776.53 595.208L774.156 599.742L771.708 604.236L769.188 608.689L766.596 613.099L763.933 617.465L761.2 621.785L758.397 626.059L755.526 630.285L752.587 634.462L749.581 638.588L746.51 642.662L743.374 646.684L740.174 650.651L736.912 654.563L733.588 658.419L730.204 662.217L726.76 665.956L723.258 669.636L719.698 673.254L716.083 676.811L712.413 680.305L708.689 683.736L704.913 687.101L701.086 690.4L697.209 693.633L693.283 696.798L689.31 699.895L685.292 702.923L681.228 705.88L677.121 708.766L672.972 711.581L668.782 714.323L664.554 716.992L660.287 719.587L655.984 722.108L651.646 724.554L647.275 726.923L642.871 729.217L638.437 731.434L633.973 733.573L629.482 735.635L624.965 737.618L620.422 739.523L615.857 741.348L611.27 743.094L606.663 744.761L602.037 746.347L597.394 747.852L592.735 749.277L588.062 750.622L583.377 751.885L578.681 753.067L573.975 754.167L569.261 755.187L564.541 756.124L559.816 756.98L555.088 757.755L550.358 758.448L545.628 759.06L540.899 759.591L536.173 760.04L531.452 760.408L526.736 760.695L522.028 760.902L517.329 761.028L512.641 761.074L507.965 761.04L503.302 760.926L498.654 760.734L494.023 760.462L489.41 760.112L484.816 759.685L480.244 759.179L475.693 758.597L471.167 757.939L466.666 757.204L462.192 756.395L457.745 755.51L453.328 754.552L448.943 753.52L444.589 752.416L440.269 751.239L435.984 749.992L431.735 748.674L427.524 747.287L423.352 745.831L419.22 744.307L415.129 742.716L411.081 741.059L407.077 739.337L403.117 737.55L399.204 735.701L395.339 733.789L391.522 731.816L387.754 729.782L384.037 727.69L380.372 725.539L376.76 723.332L373.202 721.069L369.698 718.751L366.251 716.38L362.86 713.956L359.527 711.481L356.253 708.956L353.038 706.383L349.884 703.763L346.79 701.096L343.759 698.384L340.791 695.629L337.886 692.831L335.046 689.993L332.271 687.115L329.561 684.199L326.918 681.247L324.341 678.258L321.833 675.236L319.392 672.181L317.02 669.095L314.717 665.979L312.484 662.835L310.321 659.664L308.228 656.467L306.206 653.247L304.255 650.004L302.377 646.739L300.569 643.456L298.835 640.154L297.172 636.836L295.582 633.502L294.065 630.155L292.621 626.796L291.25 623.426L289.952 620.047L288.727 616.66L287.575 613.267L286.497 609.87L285.492 606.47L284.56 603.067L283.701 599.665L282.915 596.265L282.202 592.867L281.562 589.473L280.994 586.085L280.498 582.705L280.074 579.333L279.722 575.972L279.441 572.622L279.23 569.286L279.091 565.964L279.021 562.658L279.021 559.37L279.091 556.101L279.229 552.852L279.435 549.624L279.709 546.42L280.05 543.24L280.457 540.086L280.93 536.959L281.469 533.86L282.071 530.792L282.738 527.754L283.467 524.749L284.259 521.778L285.112 518.841L286.025 515.94L286.999 513.077L288.031 510.253L289.121 507.468L290.268 504.724L291.472 502.023L292.73 499.364L294.043 496.75L295.409 494.181L296.827 491.658L298.297 489.183L299.816 486.757L301.384 484.38L303 482.054L304.663 479.779L306.371 477.556L308.124 475.387L309.92 473.272L311.758 471.212L313.637 469.207L315.556 467.26L317.512 465.37L319.506 463.538L321.536 461.765L323.6 460.051L325.697 458.398L327.826 456.806L329.986 455.275L332.174 453.807L334.391 452.401L336.634 451.059L338.902 449.78L341.194 448.566L343.508 447.417L345.843 446.332L348.197 445.313L350.57 444.36L352.959 443.474L355.363 442.653L357.781 441.9L360.212 441.214L362.653 440.595L365.103 440.044L367.562 439.56L370.027 439.144L372.497 438.796L374.97 438.515L377.446 438.303L379.922 438.159L382.397 438.083L384.87 438.075L387.339 438.134L389.803 438.261L392.26 438.456L394.709 438.719L397.149 439.048L399.577 439.445L401.993 439.908L404.395 440.438L406.782 441.034L409.151 441.695L411.503 442.422L413.835 443.215L416.146 444.071L418.434 444.992L420.699 445.976L422.938 447.024L425.151 448.134L427.336 449.305L429.492 450.539L431.617 451.833L433.711 453.187L435.771 454.6L437.797 456.072L439.787 457.603L441.741 459.19L443.656 460.833L445.531 462.533L447.366 464.287L449.159 466.094L450.91 467.955L452.616 469.868L454.277 471.832L455.891 473.846L457.458 475.909L458.976 478.021L460.445 480.18L461.863 482.385L463.23 484.634L464.544 486.928L465.804 489.265L467.01 491.643L468.16 494.062L469.254 496.521L470.291 499.017L471.269 501.551L472.189 504.12L473.049 506.724L473.848 509.361L474.586 512.03L475.263 514.73L475.876 517.46L476.426 520.217L476.912 523.002L477.334 525.811L477.69 528.645L477.981 531.502L478.205 534.38L478.363 537.278L478.453 540.194L478.475 543.128L478.429 546.077L478.315 549.041L478.132 552.018L477.879 555.005L477.557 558.003L477.165 561.01L476.703 564.023L476.17 567.042L475.567 570.066L474.894 573.092L474.149 576.118L473.334 579.145L472.448 582.17L471.49 585.191L470.462 588.208L469.363 591.219L468.192 594.221L466.951 597.214L465.639 600.197L464.257 603.167L462.804 606.124L461.28 609.066L459.687 611.99L458.024 614.897L456.291 617.784L454.49 620.65L452.619 623.493L450.68 626.313L448.673 629.107L446.599 631.874L444.457 634.613L442.249 637.322L439.975 640L437.635 642.646L435.23 645.258L432.761 647.835L430.228 650.375L427.632 652.877L424.974 655.339L422.254 657.761L419.473 660.142L416.632 662.479L413.731 664.771L410.772 667.018L407.756 669.218L404.682 671.37L401.553 673.472L398.369 675.523L395.131 677.523L391.839 679.47L388.496 681.363L385.101 683.2L381.657 684.982L378.163 686.706L374.622 688.371L371.034 689.977L367.4 691.522L363.722 693.006L360 694.428L356.236 695.786L352.431 697.08L348.587 698.309L344.704 699.472L340.784 700.568L336.828 701.596L332.837 702.555L328.813 703.445L324.757 704.265L320.67 705.015L316.553 705.693L312.409 706.299L308.239 706.832L304.043 707.291L299.823 707.677L295.581 707.988L291.318 708.224L287.035 708.385L282.735 708.47L278.417 708.478L274.085 708.409L269.739 708.263L265.381 708.039L261.012 707.738L256.635 707.358L252.249 706.9L247.857 706.363L243.461 705.747L239.062 705.052L234.661 704.278L230.26 703.425L225.86 702.492L221.464 701.479L217.072 700.387L212.686 699.216L208.308 697.965L203.939 696.635L199.58 695.225L195.234 693.736L190.902 692.168L186.585 690.522L182.285 688.796L178.003 686.993L173.74 685.111L169.5 683.152L165.282 681.115L161.088 679.001L156.92 676.811L152.78 674.544L148.668 672.201L144.587 669.784L140.537 667.291L136.521 664.724L132.539 662.084L128.593 659.371L124.684 656.585L120.815 653.727L116.985 650.799L113.197 647.8L109.452 644.732L105.752 641.594L102.097 638.389L98.4885 635.117L94.9287 631.778L91.4184 628.373L87.9589 624.904L84.5514 621.372L81.1972 617.776L77.8974 614.119L74.6533 610.402L71.466 606.624L68.3368 602.788L65.2666 598.894L62.2567 594.944L59.3081 590.938L56.4219 586.878L53.5992 582.765L50.8409 578.6L48.1481 574.384L45.5217 570.119L42.9627 565.805L40.472 561.444L38.0506 557.038L35.6993 552.587L33.419 548.092L31.2104 543.556L29.0745 538.98L27.0119 534.364L25.0234 529.71L23.1098 525.02L21.2718 520.295L19.5099 515.536L17.825 510.745L16.2175 505.923L14.688 501.072L13.2372 496.193L11.8656 491.288L10.5735 486.358L9.36166 481.404L8.23032 476.428L7.17995 471.432L6.21096 466.418L5.32368 461.385L4.51843 456.337L3.7955 451.275L3.15519 446.2L2.5977 441.114L2.12323 436.018L1.732 430.914L1.42409 425.803L1.19966 420.687L1.05874 415.568L1.00143 410.447" stroke="#1713A5"/>
</svg>
